<?xml version="1.0" encoding="utf-8"?>
<!-- Generator: Adobe Illustrator 23.0.2, SVG Export Plug-In . SVG Version: 6.00 Build 0)  -->
<svg version="1.1" id="Warstwa_1" xmlns="http://www.w3.org/2000/svg" xmlns:xlink="http://www.w3.org/1999/xlink" x="0px" y="0px"
	 viewBox="0 0 33.9 84.2" style="enable-background:new 0 0 33.9 84.2;" xml:space="preserve">
<style type="text/css">
	.st0{fill:#020203;}
</style>
<g>
	<path class="st0" d="M18.7,1.9C18.7,1.9,18.7,1.9,18.7,1.9c-0.2-0.1-0.4-0.2-0.5-0.3c0,0,0,0,0,0c-0.2-0.1-0.4-0.1-0.5-0.2
		c0,0,0,0,0,0c-0.2,0-0.4-0.1-0.6-0.1c0,0,0,0,0,0c-0.2,0-0.4,0-0.6,0.1c0,0,0,0,0,0c-0.2,0-0.4,0.1-0.5,0.2c0,0,0,0,0,0
		c-0.2,0.1-0.3,0.2-0.5,0.3c0,0,0,0,0,0c-0.2,0.1-0.3,0.2-0.5,0.4c0,0,0,0,0,0c0,0,0,0,0,0L2.1,15c-1.2,1.2-1.2,3.2,0,4.4
		c1.2,1.2,3.2,1.2,4.4,0l7.3-7.3v15.4c0,1.7,1.4,3.1,3.1,3.1c1.7,0,3.1-1.4,3.1-3.1V12.1l7.3,7.3c1.2,1.2,3.2,1.2,4.4,0
		c1.2-1.2,1.2-3.2,0-4.4L19.2,2.3c0,0,0,0,0,0C19,2.1,18.9,2,18.7,1.9z"/>
	<path class="st0" d="M13.8,35.9v10.4c0,1.7,1.4,3.1,3.1,3.1c1.7,0,3.1-1.4,3.1-3.1V35.9c0-1.7-1.4-3.1-3.1-3.1
		C15.2,32.7,13.8,34.1,13.8,35.9z"/>
	<path class="st0" d="M13.8,54.3v5.5c0,1.7,1.4,3.1,3.1,3.1c1.7,0,3.1-1.4,3.1-3.1v-5.5c0-1.7-1.4-3.1-3.1-3.1
		C15.2,51.2,13.8,52.6,13.8,54.3z"/>
	<path class="st0" d="M13.8,68.7v1.9c0,1.7,1.4,3.1,3.1,3.1c1.7,0,3.1-1.4,3.1-3.1v-1.9c0-1.7-1.4-3.1-3.1-3.1
		C15.2,65.6,13.8,67,13.8,68.7z"/>
	<path class="st0" d="M13.8,79.3c0,1.8,1.4,3.2,3.2,3.2c1.8,0,3.2-1.4,3.2-3.2c0-1.8-1.4-3.2-3.2-3.2C15.3,76.1,13.8,77.6,13.8,79.3
		z"/>
</g>
</svg>
