<?xml version="1.0" encoding="utf-8"?>
<!-- Generator: Adobe Illustrator 23.0.2, SVG Export Plug-In . SVG Version: 6.00 Build 0)  -->
<svg version="1.1" id="Warstwa_1" xmlns="http://www.w3.org/2000/svg" xmlns:xlink="http://www.w3.org/1999/xlink" x="0px" y="0px"
	 viewBox="0 0 82.5 33" style="enable-background:new 0 0 82.5 33;" xml:space="preserve">
<style type="text/css">
	.st0{fill:#020203;}
</style>
<g>
	<path class="st0" d="M1.4,18.2C1.4,18.2,1.4,18.2,1.4,18.2c-0.1-0.2-0.2-0.4-0.3-0.5c0,0,0,0,0,0C1.1,17.5,1,17.3,1,17.1
		c0,0,0,0,0,0c0-0.2-0.1-0.4-0.1-0.6c0,0,0,0,0,0c0-0.2,0-0.4,0.1-0.6c0,0,0,0,0,0c0-0.2,0.1-0.4,0.2-0.5c0,0,0,0,0,0
		c0.1-0.2,0.2-0.3,0.3-0.5c0,0,0,0,0,0c0.1-0.2,0.2-0.3,0.4-0.5c0,0,0,0,0,0c0,0,0,0,0,0L14.5,1.6c1.2-1.2,3.2-1.2,4.4,0
		c1.2,1.2,1.2,3.2,0,4.4l-7.3,7.3H27c1.7,0,3.1,1.4,3.1,3.1c0,1.7-1.4,3.1-3.1,3.1H11.7l7.3,7.3c1.2,1.2,1.2,3.2,0,4.4
		c-1.2,1.2-3.2,1.2-4.4,0L1.8,18.7c0,0,0,0,0,0C1.7,18.5,1.6,18.4,1.4,18.2z"/>
	<path class="st0" d="M35.4,13.3h10.4c1.7,0,3.1,1.4,3.1,3.1c0,1.7-1.4,3.1-3.1,3.1H35.4c-1.7,0-3.1-1.4-3.1-3.1
		C32.3,14.7,33.7,13.3,35.4,13.3z"/>
	<path class="st0" d="M53.9,13.3h5.5c1.7,0,3.1,1.4,3.1,3.1c0,1.7-1.4,3.1-3.1,3.1h-5.5c-1.7,0-3.1-1.4-3.1-3.1
		C50.7,14.7,52.1,13.3,53.9,13.3z"/>
	<path class="st0" d="M68.2,13.3h1.9c1.7,0,3.1,1.4,3.1,3.1c0,1.7-1.4,3.1-3.1,3.1h-1.9c-1.7,0-3.1-1.4-3.1-3.1
		C65.1,14.7,66.5,13.3,68.2,13.3z"/>
	<path class="st0" d="M78.9,13.3c1.8,0,3.2,1.4,3.2,3.2c0,1.8-1.4,3.2-3.2,3.2c-1.8,0-3.2-1.4-3.2-3.2
		C75.7,14.8,77.1,13.3,78.9,13.3z"/>
</g>
</svg>
