<?xml version="1.0" encoding="utf-8"?>
<!-- Generator: Adobe Illustrator 23.0.2, SVG Export Plug-In . SVG Version: 6.00 Build 0)  -->
<svg version="1.1" id="Warstwa_1" xmlns="http://www.w3.org/2000/svg" xmlns:xlink="http://www.w3.org/1999/xlink" x="0px" y="0px"
	 viewBox="0 0 82.5 33" style="enable-background:new 0 0 82.5 33;" xml:space="preserve">
<style type="text/css">
	.st0{fill:#020203;}
</style>
<g>
	<path class="st0" d="M81.5,18.2C81.6,18.2,81.6,18.2,81.5,18.2c0.1-0.2,0.2-0.4,0.3-0.5c0,0,0,0,0,0c0.1-0.2,0.1-0.4,0.2-0.5
		c0,0,0,0,0,0c0-0.2,0.1-0.4,0.1-0.6c0,0,0,0,0,0c0-0.2,0-0.4-0.1-0.6c0,0,0,0,0,0c0-0.2-0.1-0.4-0.2-0.5c0,0,0,0,0,0
		c-0.1-0.2-0.2-0.3-0.3-0.5c0,0,0,0,0,0c-0.1-0.2-0.2-0.3-0.4-0.5c0,0,0,0,0,0c0,0,0,0,0,0L68.5,1.6c-1.2-1.2-3.2-1.2-4.4,0
		c-1.2,1.2-1.2,3.2,0,4.4l7.3,7.3H56c-1.7,0-3.1,1.4-3.1,3.1c0,1.7,1.4,3.1,3.1,3.1h15.4L64,26.9c-1.2,1.2-1.2,3.2,0,4.4
		c1.2,1.2,3.2,1.2,4.4,0l12.7-12.7c0,0,0,0,0,0C81.3,18.5,81.4,18.4,81.5,18.2z"/>
	<path class="st0" d="M47.6,13.3H37.2c-1.7,0-3.1,1.4-3.1,3.1c0,1.7,1.4,3.1,3.1,3.1h10.4c1.7,0,3.1-1.4,3.1-3.1
		C50.7,14.7,49.3,13.3,47.6,13.3z"/>
	<path class="st0" d="M29.1,13.3h-5.5c-1.7,0-3.1,1.4-3.1,3.1c0,1.7,1.4,3.1,3.1,3.1h5.5c1.7,0,3.1-1.4,3.1-3.1
		C32.3,14.7,30.9,13.3,29.1,13.3z"/>
	<path class="st0" d="M14.7,13.3h-1.9c-1.7,0-3.1,1.4-3.1,3.1c0,1.7,1.4,3.1,3.1,3.1h1.9c1.7,0,3.1-1.4,3.1-3.1
		C17.9,14.7,16.5,13.3,14.7,13.3z"/>
	<path class="st0" d="M4.1,13.3c-1.8,0-3.2,1.4-3.2,3.2c0,1.8,1.4,3.2,3.2,3.2s3.2-1.4,3.2-3.2C7.3,14.8,5.9,13.3,4.1,13.3z"/>
</g>
</svg>
