<?xml version="1.0" encoding="utf-8"?>
<!-- Generator: Adobe Illustrator 23.0.2, SVG Export Plug-In . SVG Version: 6.00 Build 0)  -->
<svg version="1.1" id="Warstwa_1" xmlns="http://www.w3.org/2000/svg" xmlns:xlink="http://www.w3.org/1999/xlink" x="0px" y="0px"
	 viewBox="0 0 1000 1000" style="enable-background:new 0 0 1000 1000;" xml:space="preserve">
<style type="text/css">
	.st0{fill:#16110D;}
	.st1{fill:#FFFFFF;}
	.st2{fill:#AA0010;}
	.st3{fill:#15100C;}
	.st4{fill:#0D1858;}
	.st5{fill:#140F0C;}
</style>
<g id="illustration_2_">
	<g id="XMLID_3988_">
		<g id="XMLID_4513_">
			<path id="XMLID_4649_" class="st0" d="M688,970.7c1.3,0.8,1.3,2,0,2.7c-1.3,0.8-3.4,0.8-4.8,0c-1.3-0.8-1.3-2,0-2.7
				C684.5,969.9,686.6,969.9,688,970.7z"/>
			<path id="XMLID_4647_" class="st0" d="M700.4,963.5c1.3,0.8,1.3,2,0,2.7c-1.3,0.8-3.4,0.8-4.8,0c-1.3-0.8-1.3-2,0-2.7
				C697,962.7,699.1,962.7,700.4,963.5z"/>
			<path id="XMLID_4645_" class="st0" d="M712.9,956.3c1.3,0.8,1.3,2,0,2.7c-1.3,0.8-3.4,0.8-4.8,0c-1.3-0.8-1.3-2,0-2.7
				C709.4,955.6,711.5,955.6,712.9,956.3z"/>
			<ellipse id="XMLID_4643_" class="st0" cx="722.9" cy="950.5" rx="3.4" ry="1.9"/>
			<path id="XMLID_4641_" class="st0" d="M737.7,941.9c1.3,0.8,1.3,2,0,2.7c-1.3,0.8-3.4,0.8-4.8,0c-1.3-0.8-1.3-2,0-2.7
				C734.3,941.2,736.4,941.2,737.7,941.9z"/>
			<ellipse id="XMLID_4639_" class="st0" cx="747.8" cy="936.1" rx="3.4" ry="1.9"/>
			<path id="XMLID_4637_" class="st0" d="M762.6,927.6c1.3,0.8,1.3,2,0,2.7c-1.3,0.8-3.4,0.8-4.8,0c-1.3-0.8-1.3-2,0-2.7
				C759.2,926.8,761.3,926.8,762.6,927.6z"/>
			<ellipse id="XMLID_4635_" class="st0" cx="772.7" cy="921.8" rx="3.4" ry="1.9"/>
			<path id="XMLID_4633_" class="st0" d="M787.5,913.2c1.3,0.8,1.3,2,0,2.7c-1.3,0.8-3.4,0.8-4.8,0c-1.3-0.8-1.3-2,0-2.7
				C784.1,912.4,786.2,912.4,787.5,913.2z"/>
			<path id="XMLID_4631_" class="st0" d="M663.1,970.7c1.3,0.8,1.3,2,0,2.7c-1.3,0.8-3.4,0.8-4.8,0c-1.3-0.8-1.3-2,0-2.7
				C659.6,969.9,661.8,969.9,663.1,970.7z"/>
			<path id="XMLID_4629_" class="st0" d="M675.5,963.5c1.3,0.8,1.3,2,0,2.7c-1.3,0.8-3.4,0.8-4.8,0c-1.3-0.8-1.3-2,0-2.7
				C672.1,962.7,674.2,962.7,675.5,963.5z"/>
			<ellipse id="XMLID_4627_" class="st0" cx="685.6" cy="957.7" rx="3.4" ry="1.9"/>
			<ellipse id="XMLID_4625_" class="st0" cx="698" cy="950.5" rx="3.4" ry="1.9"/>
			<path id="XMLID_4623_" class="st0" d="M712.9,941.9c1.3,0.8,1.3,2,0,2.7c-1.3,0.8-3.4,0.8-4.8,0c-1.3-0.8-1.3-2,0-2.7
				C709.4,941.2,711.5,941.2,712.9,941.9z"/>
			<path id="XMLID_4621_" class="st0" d="M725.3,934.8c1.3,0.8,1.3,2,0,2.7c-1.3,0.8-3.4,0.8-4.8,0c-1.3-0.8-1.3-2,0-2.7
				C721.9,934,724,934,725.3,934.8z"/>
			<path id="XMLID_4619_" class="st0" d="M737.7,927.6c1.3,0.8,1.3,2,0,2.7c-1.3,0.8-3.4,0.8-4.8,0c-1.3-0.8-1.3-2,0-2.7
				C734.3,926.8,736.4,926.8,737.7,927.6z"/>
			<path id="XMLID_4617_" class="st0" d="M750.2,920.4c1.3,0.8,1.3,2,0,2.7c-1.3,0.8-3.4,0.8-4.8,0c-1.3-0.8-1.3-2,0-2.7
				C746.7,919.6,748.9,919.6,750.2,920.4z"/>
			<path id="XMLID_4615_" class="st0" d="M762.6,913.2c1.3,0.8,1.3,2,0,2.7c-1.3,0.8-3.4,0.8-4.8,0c-1.3-0.8-1.3-2,0-2.7
				C759.2,912.4,761.3,912.4,762.6,913.2z"/>
			<ellipse id="XMLID_4613_" class="st0" cx="772.7" cy="907.4" rx="3.4" ry="1.9"/>
			<path id="XMLID_4611_" class="st0" d="M650.6,963.5c1.3,0.8,1.3,2,0,2.7c-1.3,0.8-3.4,0.8-4.8,0c-1.3-0.8-1.3-2,0-2.7
				C647.2,962.7,649.3,962.7,650.6,963.5z"/>
			<path id="XMLID_4609_" class="st0" d="M663.1,956.3c1.3,0.8,1.3,2,0,2.7c-1.3,0.8-3.4,0.8-4.8,0c-1.3-0.8-1.3-2,0-2.7
				C659.6,955.6,661.8,955.6,663.1,956.3z"/>
			<path id="XMLID_4607_" class="st0" d="M675.5,949.1c1.3,0.8,1.3,2,0,2.7c-1.3,0.8-3.4,0.8-4.8,0c-1.3-0.8-1.3-2,0-2.7
				C672.1,948.4,674.2,948.4,675.5,949.1z"/>
			<path id="XMLID_4605_" class="st0" d="M688,941.9c1.3,0.8,1.3,2,0,2.7c-1.3,0.8-3.4,0.8-4.8,0c-1.3-0.8-1.3-2,0-2.7
				C684.5,941.2,686.6,941.2,688,941.9z"/>
			<ellipse id="XMLID_4603_" class="st0" cx="698" cy="936.1" rx="3.4" ry="1.9"/>
			<path id="XMLID_4601_" class="st0" d="M712.9,927.6c1.3,0.8,1.3,2,0,2.7c-1.3,0.8-3.4,0.8-4.8,0c-1.3-0.8-1.3-2,0-2.7
				C709.4,926.8,711.5,926.8,712.9,927.6z"/>
			<path id="XMLID_4599_" class="st0" d="M725.3,920.4c1.3,0.8,1.3,2,0,2.7c-1.3,0.8-3.4,0.8-4.8,0c-1.3-0.8-1.3-2,0-2.7
				C721.9,919.6,724,919.6,725.3,920.4z"/>
			<path id="XMLID_4597_" class="st0" d="M737.7,913.2c1.3,0.8,1.3,2,0,2.7c-1.3,0.8-3.4,0.8-4.8,0c-1.3-0.8-1.3-2,0-2.7
				C734.3,912.4,736.4,912.4,737.7,913.2z"/>
			<ellipse id="XMLID_4595_" class="st0" cx="747.8" cy="907.4" rx="3.4" ry="1.9"/>
			<path id="XMLID_4593_" class="st0" d="M762.6,898.8c1.3,0.8,1.3,2,0,2.7c-1.3,0.8-3.4,0.8-4.8,0c-1.3-0.8-1.3-2,0-2.7
				C759.2,898.1,761.3,898.1,762.6,898.8z"/>
			<path id="XMLID_4591_" class="st0" d="M638.1,956.2c1.3,0.8,1.3,2,0,2.7c-1.3,0.8-3.4,0.8-4.8,0c-1.3-0.8-1.3-2,0-2.7
				C634.6,955.5,636.8,955.5,638.1,956.2z"/>
			<path id="XMLID_4589_" class="st0" d="M650.5,949c1.3,0.8,1.3,2,0,2.7c-1.3,0.8-3.4,0.8-4.8,0c-1.3-0.8-1.3-2,0-2.7
				C647.1,948.3,649.2,948.3,650.5,949z"/>
			<path id="XMLID_4587_" class="st0" d="M663,941.9c1.3,0.8,1.3,2,0,2.7c-1.3,0.8-3.4,0.8-4.8,0c-1.3-0.8-1.3-2,0-2.7
				C659.5,941.1,661.6,941.1,663,941.9z"/>
			<ellipse id="XMLID_4585_" class="st0" cx="673" cy="936.1" rx="3.4" ry="1.9"/>
			<path id="XMLID_4583_" class="st0" d="M687.9,927.5c1.3,0.8,1.3,2,0,2.7c-1.3,0.8-3.4,0.8-4.8,0c-1.3-0.8-1.3-2,0-2.7
				C684.4,926.7,686.5,926.7,687.9,927.5z"/>
			<path id="XMLID_4581_" class="st0" d="M700.3,920.3c1.3,0.8,1.3,2,0,2.7c-1.3,0.8-3.4,0.8-4.8,0c-1.3-0.8-1.3-2,0-2.7
				C696.9,919.5,699,919.5,700.3,920.3z"/>
			<path id="XMLID_4579_" class="st0" d="M712.7,913.1c1.3,0.8,1.3,2,0,2.7c-1.3,0.8-3.4,0.8-4.8,0c-1.3-0.8-1.3-2,0-2.7
				C709.3,912.4,711.4,912.4,712.7,913.1z"/>
			<path id="XMLID_4577_" class="st0" d="M725.2,905.9c1.3,0.8,1.3,2,0,2.7c-1.3,0.8-3.4,0.8-4.8,0c-1.3-0.8-1.3-2,0-2.7
				C721.7,905.2,723.9,905.2,725.2,905.9z"/>
			<path id="XMLID_4575_" class="st0" d="M737.6,898.7c1.3,0.8,1.3,2,0,2.7c-1.3,0.8-3.4,0.8-4.8,0c-1.3-0.8-1.3-2,0-2.7
				C734.2,898,736.3,898,737.6,898.7z"/>
			<path id="XMLID_4573_" class="st0" d="M750.1,891.6c1.3,0.8,1.3,2,0,2.7c-1.3,0.8-3.4,0.8-4.8,0c-1.3-0.8-1.3-2,0-2.7
				S748.8,890.8,750.1,891.6z"/>
			<ellipse id="XMLID_4571_" class="st0" cx="635.7" cy="943.2" rx="3.4" ry="1.9"/>
			<path id="XMLID_4569_" class="st0" d="M650.5,934.7c1.3,0.8,1.3,2,0,2.7c-1.3,0.8-3.4,0.8-4.8,0c-1.3-0.8-1.3-2,0-2.7
				C647.1,933.9,649.2,933.9,650.5,934.7z"/>
			<path id="XMLID_4567_" class="st0" d="M663,927.5c1.3,0.8,1.3,2,0,2.7c-1.3,0.8-3.4,0.8-4.8,0c-1.3-0.8-1.3-2,0-2.7
				C659.5,926.7,661.6,926.7,663,927.5z"/>
			<ellipse id="XMLID_4565_" class="st0" cx="673" cy="921.7" rx="3.4" ry="1.9"/>
			<path id="XMLID_4563_" class="st0" d="M700.3,905.9c1.3,0.8,1.3,2,0,2.7c-1.3,0.8-3.4,0.8-4.8,0c-1.3-0.8-1.3-2,0-2.7
				C696.9,905.2,699,905.2,700.3,905.9z"/>
			<path id="XMLID_4561_" class="st0" d="M712.7,898.7c1.3,0.8,1.3,2,0,2.7c-1.3,0.8-3.4,0.8-4.8,0c-1.3-0.8-1.3-2,0-2.7
				C709.3,898,711.4,898,712.7,898.7z"/>
			<ellipse id="XMLID_4559_" class="st0" cx="722.8" cy="892.9" rx="3.4" ry="1.9"/>
			<path id="XMLID_4557_" class="st0" d="M795.2,906.1c1.3-0.8,3.4-0.8,4.8,0c1.3,0.8,1.3,2,0,2.7c-1.3,0.8-3.4,0.8-4.8,0
				C793.9,908.1,793.9,906.9,795.2,906.1z"/>
			<path id="XMLID_4555_" class="st0" d="M812.5,898.9c1.3,0.8,1.3,2,0,2.7c-1.3,0.8-3.4,0.8-4.8,0c-1.3-0.8-1.3-2,0-2.7
				C809,898.2,811.1,898.2,812.5,898.9z"/>
			<path id="XMLID_4553_" class="st0" d="M824.9,891.7c1.3,0.8,1.3,2,0,2.7c-1.3,0.8-3.4,0.8-4.8,0c-1.3-0.8-1.3-2,0-2.7
				C821.5,891,823.6,891,824.9,891.7z"/>
			<path id="XMLID_4551_" class="st0" d="M837.4,884.5c1.3,0.8,1.3,2,0,2.7c-1.3,0.8-3.4,0.8-4.8,0c-1.3-0.8-1.3-2,0-2.7
				C833.9,883.8,836,883.8,837.4,884.5z"/>
			<path id="XMLID_4549_" class="st0" d="M782.8,898.9c1.3-0.8,3.4-0.8,4.8,0c1.3,0.8,1.3,2,0,2.7c-1.3,0.8-3.4,0.8-4.8,0
				C781.5,900.9,781.5,899.7,782.8,898.9z"/>
			<path id="XMLID_4547_" class="st0" d="M800,891.7c1.3,0.8,1.3,2,0,2.7c-1.3,0.8-3.4,0.8-4.8,0c-1.3-0.8-1.3-2,0-2.7
				C796.6,891,798.7,891,800,891.7z"/>
			<path id="XMLID_4545_" class="st0" d="M812.5,884.5c1.3,0.8,1.3,2,0,2.7c-1.3,0.8-3.4,0.8-4.8,0c-1.3-0.8-1.3-2,0-2.7
				C809,883.8,811.1,883.8,812.5,884.5z"/>
			<ellipse id="XMLID_4543_" class="st0" cx="822.5" cy="878.7" rx="3.4" ry="1.9"/>
			<path id="XMLID_4541_" class="st0" d="M837.4,870.2c1.3,0.8,1.3,2,0,2.7s-3.4,0.8-4.8,0c-1.3-0.8-1.3-2,0-2.7
				C833.9,869.4,836,869.4,837.4,870.2z"/>
			<path id="XMLID_4539_" class="st0" d="M770.3,891.7c1.3-0.8,3.4-0.8,4.8,0c1.3,0.8,1.3,2,0,2.7c-1.3,0.8-3.4,0.8-4.8,0
				C769,893.7,769,892.5,770.3,891.7z"/>
			<path id="XMLID_4537_" class="st0" d="M787.6,884.5c1.3,0.8,1.3,2,0,2.7c-1.3,0.8-3.4,0.8-4.8,0c-1.3-0.8-1.3-2,0-2.7
				C784.1,883.8,786.3,883.8,787.6,884.5z"/>
			<ellipse id="XMLID_4535_" class="st0" cx="797.6" cy="878.7" rx="3.4" ry="1.9"/>
			<path id="XMLID_4533_" class="st0" d="M812.5,870.2c1.3,0.8,1.3,2,0,2.7c-1.3,0.8-3.4,0.8-4.8,0c-1.3-0.8-1.3-2,0-2.7
				C809,869.4,811.1,869.4,812.5,870.2z"/>
			<ellipse id="XMLID_4531_" class="st0" cx="822.5" cy="864.4" rx="3.4" ry="1.9"/>
			<path id="XMLID_4529_" class="st0" d="M837.4,855.8c1.3,0.8,1.3,2,0,2.7c-1.3,0.8-3.4,0.8-4.8,0c-1.3-0.8-1.3-2,0-2.7
				C833.9,855,836,855,837.4,855.8z"/>
			<path id="XMLID_4527_" class="st0" d="M757.8,884.5c1.3-0.8,3.4-0.8,4.8,0c1.3,0.8,1.3,2,0,2.7c-1.3,0.8-3.4,0.8-4.8,0
				C756.5,886.5,756.5,885.2,757.8,884.5z"/>
			<path id="XMLID_4525_" class="st0" d="M775,877.3c1.3,0.8,1.3,2,0,2.7c-1.3,0.8-3.4,0.8-4.8,0c-1.3-0.8-1.3-2,0-2.7
				C771.6,876.5,773.7,876.5,775,877.3z"/>
			<path id="XMLID_4523_" class="st0" d="M787.5,870.1c1.3,0.8,1.3,2,0,2.7c-1.3,0.8-3.4,0.8-4.8,0c-1.3-0.8-1.3-2,0-2.7
				C784,869.3,786.1,869.3,787.5,870.1z"/>
			<path id="XMLID_4521_" class="st0" d="M799.9,862.9c1.3,0.8,1.3,2,0,2.7c-1.3,0.8-3.4,0.8-4.8,0c-1.3-0.8-1.3-2,0-2.7
				C796.5,862.2,798.6,862.2,799.9,862.9z"/>
			<path id="XMLID_4519_" class="st0" d="M812.4,855.7c1.3,0.8,1.3,2,0,2.7c-1.3,0.8-3.4,0.8-4.8,0c-1.3-0.8-1.3-2,0-2.7
				C808.9,855,811,855,812.4,855.7z"/>
			<path id="XMLID_4517_" class="st0" d="M824.8,848.5c1.3,0.8,1.3,2,0,2.7c-1.3,0.8-3.4,0.8-4.8,0c-1.3-0.8-1.3-2,0-2.7
				C821.4,847.8,823.5,847.8,824.8,848.5z"/>
			<path id="XMLID_4515_" class="st0" d="M812.4,841.4c1.3,0.8,1.3,2,0,2.7c-1.3,0.8-3.4,0.8-4.8,0c-1.3-0.8-1.3-2,0-2.7
				C808.9,840.6,811,840.6,812.4,841.4z"/>
		</g>
		<g id="XMLID_4066_">
			<path id="XMLID_4511_" class="st0" d="M175.9,674.7c1.3,0.8,1.3,2,0,2.7c-1.3,0.8-3.4,0.8-4.8,0c-1.3-0.8-1.3-2,0-2.7
				C172.4,673.9,174.6,673.9,175.9,674.7z"/>
			<path id="XMLID_4509_" class="st0" d="M188.3,667.5c1.3,0.8,1.3,2,0,2.7c-1.3,0.8-3.4,0.8-4.8,0c-1.3-0.8-1.3-2,0-2.7
				C184.9,666.7,187,666.7,188.3,667.5z"/>
			<path id="XMLID_4507_" class="st0" d="M200.8,660.3c1.3,0.8,1.3,2,0,2.7c-1.3,0.8-3.4,0.8-4.8,0c-1.3-0.8-1.3-2,0-2.7
				C197.3,659.5,199.4,659.5,200.8,660.3z"/>
			<ellipse id="XMLID_4505_" class="st0" cx="210.8" cy="654.5" rx="3.4" ry="1.9"/>
			<path id="XMLID_4503_" class="st0" d="M225.7,645.9c1.3,0.8,1.3,2,0,2.7c-1.3,0.8-3.4,0.8-4.8,0c-1.3-0.8-1.3-2,0-2.7
				C222.2,645.1,224.3,645.1,225.7,645.9z"/>
			<ellipse id="XMLID_4501_" class="st0" cx="235.7" cy="640.1" rx="3.4" ry="1.9"/>
			<ellipse id="XMLID_4499_" class="st0" cx="248.2" cy="632.9" rx="3.4" ry="1.9"/>
			<path id="XMLID_4497_" class="st0" d="M263,624.4c1.3,0.8,1.3,2,0,2.7c-1.3,0.8-3.4,0.8-4.8,0c-1.3-0.8-1.3-2,0-2.7
				C259.6,623.6,261.7,623.6,263,624.4z"/>
			<path id="XMLID_4495_" class="st0" d="M275.4,617.2c1.3,0.8,1.3,2,0,2.7c-1.3,0.8-3.4,0.8-4.8,0c-1.3-0.8-1.3-2,0-2.7
				C272,616.4,274.1,616.4,275.4,617.2z"/>
			<path id="XMLID_4493_" class="st0" d="M151,674.7c1.3,0.8,1.3,2,0,2.7c-1.3,0.8-3.4,0.8-4.8,0c-1.3-0.8-1.3-2,0-2.7
				C147.5,673.9,149.7,673.9,151,674.7z"/>
			<path id="XMLID_4491_" class="st0" d="M163.4,667.5c1.3,0.8,1.3,2,0,2.7c-1.3,0.8-3.4,0.8-4.8,0c-1.3-0.8-1.3-2,0-2.7
				C160,666.7,162.1,666.7,163.4,667.5z"/>
			<ellipse id="XMLID_4489_" class="st0" cx="173.5" cy="661.7" rx="3.4" ry="1.9"/>
			<path id="XMLID_4487_" class="st0" d="M188.3,653.1c1.3,0.8,1.3,2,0,2.7c-1.3,0.8-3.4,0.8-4.8,0c-1.3-0.8-1.3-2,0-2.7
				C184.9,652.3,187,652.3,188.3,653.1z"/>
			<path id="XMLID_4485_" class="st0" d="M200.8,645.9c1.3,0.8,1.3,2,0,2.7c-1.3,0.8-3.4,0.8-4.8,0c-1.3-0.8-1.3-2,0-2.7
				C197.3,645.1,199.4,645.1,200.8,645.9z"/>
			<path id="XMLID_4483_" class="st0" d="M213.2,638.7c1.3,0.8,1.3,2,0,2.7c-1.3,0.8-3.4,0.8-4.8,0c-1.3-0.8-1.3-2,0-2.7
				C209.8,638,211.9,638,213.2,638.7z"/>
			<path id="XMLID_4481_" class="st0" d="M225.7,631.5c1.3,0.8,1.3,2,0,2.7c-1.3,0.8-3.4,0.8-4.8,0c-1.3-0.8-1.3-2,0-2.7
				C222.2,630.8,224.3,630.8,225.7,631.5z"/>
			<path id="XMLID_4479_" class="st0" d="M238.1,624.4c1.3,0.8,1.3,2,0,2.7c-1.3,0.8-3.4,0.8-4.8,0c-1.3-0.8-1.3-2,0-2.7
				C234.7,623.6,236.8,623.6,238.1,624.4z"/>
			<path id="XMLID_4167_" class="st0" d="M250.6,617.2c1.3,0.8,1.3,2,0,2.7c-1.3,0.8-3.4,0.8-4.8,0c-1.3-0.8-1.3-2,0-2.7
				C247.1,616.4,249.2,616.4,250.6,617.2z"/>
			<ellipse id="XMLID_4165_" class="st0" cx="260.6" cy="611.4" rx="3.4" ry="1.9"/>
			<path id="XMLID_4163_" class="st0" d="M138.5,667.5c1.3,0.8,1.3,2,0,2.7c-1.3,0.8-3.4,0.8-4.8,0c-1.3-0.8-1.3-2,0-2.7
				C135.1,666.7,137.2,666.7,138.5,667.5z"/>
			<path id="XMLID_4161_" class="st0" d="M151,660.3c1.3,0.8,1.3,2,0,2.7c-1.3,0.8-3.4,0.8-4.8,0c-1.3-0.8-1.3-2,0-2.7
				C147.5,659.5,149.7,659.5,151,660.3z"/>
			<path id="XMLID_4159_" class="st0" d="M163.4,653.1c1.3,0.8,1.3,2,0,2.7c-1.3,0.8-3.4,0.8-4.8,0c-1.3-0.8-1.3-2,0-2.7
				C160,652.3,162.1,652.3,163.4,653.1z"/>
			<path id="XMLID_4157_" class="st0" d="M175.9,645.9c1.3,0.8,1.3,2,0,2.7c-1.3,0.8-3.4,0.8-4.8,0c-1.3-0.8-1.3-2,0-2.7
				C172.4,645.1,174.6,645.1,175.9,645.9z"/>
			<ellipse id="XMLID_4155_" class="st0" cx="185.9" cy="640.1" rx="3.4" ry="1.9"/>
			<ellipse id="XMLID_4153_" class="st0" cx="198.4" cy="632.9" rx="3.4" ry="1.9"/>
			<path id="XMLID_4151_" class="st0" d="M213.2,624.4c1.3,0.8,1.3,2,0,2.7c-1.3,0.8-3.4,0.8-4.8,0c-1.3-0.8-1.3-2,0-2.7
				C209.8,623.6,211.9,623.6,213.2,624.4z"/>
			<path id="XMLID_4149_" class="st0" d="M225.7,617.2c1.3,0.8,1.3,2,0,2.7c-1.3,0.8-3.4,0.8-4.8,0c-1.3-0.8-1.3-2,0-2.7
				C222.2,616.4,224.3,616.4,225.7,617.2z"/>
			<path id="XMLID_4147_" class="st0" d="M238.1,610c1.3,0.8,1.3,2,0,2.7c-1.3,0.8-3.4,0.8-4.8,0c-1.3-0.8-1.3-2,0-2.7
				C234.7,609.2,236.8,609.2,238.1,610z"/>
			<ellipse id="XMLID_4145_" class="st0" cx="248.2" cy="604.2" rx="3.4" ry="1.9"/>
			<path id="XMLID_4143_" class="st0" d="M126,660.2c1.3,0.8,1.3,2,0,2.7c-1.3,0.8-3.4,0.8-4.8,0c-1.3-0.8-1.3-2,0-2.7
				C122.5,659.4,124.7,659.4,126,660.2z"/>
			<path id="XMLID_4141_" class="st0" d="M138.4,653c1.3,0.8,1.3,2,0,2.7c-1.3,0.8-3.4,0.8-4.8,0c-1.3-0.8-1.3-2,0-2.7
				C135,652.3,137.1,652.3,138.4,653z"/>
			<path id="XMLID_4139_" class="st0" d="M150.9,645.8c1.3,0.8,1.3,2,0,2.7c-1.3,0.8-3.4,0.8-4.8,0c-1.3-0.8-1.3-2,0-2.7
				C147.4,645.1,149.6,645.1,150.9,645.8z"/>
			<path id="XMLID_4137_" class="st0" d="M163.3,638.6c1.3,0.8,1.3,2,0,2.7c-1.3,0.8-3.4,0.8-4.8,0c-1.3-0.8-1.3-2,0-2.7
				C159.9,637.9,162,637.9,163.3,638.6z"/>
			<path id="XMLID_4135_" class="st0" d="M175.8,631.5c1.3,0.8,1.3,2,0,2.7c-1.3,0.8-3.4,0.8-4.8,0c-1.3-0.8-1.3-2,0-2.7
				C172.3,630.7,174.4,630.7,175.8,631.5z"/>
			<ellipse id="XMLID_4133_" class="st0" cx="185.8" cy="625.6" rx="3.4" ry="1.9"/>
			<path id="XMLID_4131_" class="st0" d="M200.7,617.1c1.3,0.8,1.3,2,0,2.7c-1.3,0.8-3.4,0.8-4.8,0c-1.3-0.8-1.3-2,0-2.7
				C197.2,616.3,199.3,616.3,200.7,617.1z"/>
			<path id="XMLID_4129_" class="st0" d="M213.1,609.9c1.3,0.8,1.3,2,0,2.7c-1.3,0.8-3.4,0.8-4.8,0c-1.3-0.8-1.3-2,0-2.7
				C209.7,609.1,211.8,609.1,213.1,609.9z"/>
			<path id="XMLID_4127_" class="st0" d="M225.5,602.7c1.3,0.8,1.3,2,0,2.7c-1.3,0.8-3.4,0.8-4.8,0c-1.3-0.8-1.3-2,0-2.7
				C222.1,602,224.2,602,225.5,602.7z"/>
			<path id="XMLID_4125_" class="st0" d="M238,595.5c1.3,0.8,1.3,2,0,2.7c-1.3,0.8-3.4,0.8-4.8,0c-1.3-0.8-1.3-2,0-2.7
				C234.5,594.8,236.7,594.8,238,595.5z"/>
			<ellipse id="XMLID_4123_" class="st0" cx="123.6" cy="647.2" rx="3.4" ry="1.9"/>
			<path id="XMLID_4121_" class="st0" d="M138.4,638.6c1.3,0.8,1.3,2,0,2.7c-1.3,0.8-3.4,0.8-4.8,0c-1.3-0.8-1.3-2,0-2.7
				C135,637.9,137.1,637.9,138.4,638.6z"/>
			<path id="XMLID_4119_" class="st0" d="M150.9,631.5c1.3,0.8,1.3,2,0,2.7c-1.3,0.8-3.4,0.8-4.8,0c-1.3-0.8-1.3-2,0-2.7
				C147.4,630.7,149.6,630.7,150.9,631.5z"/>
			<ellipse id="XMLID_4117_" class="st0" cx="160.9" cy="625.6" rx="3.4" ry="1.9"/>
			<path id="XMLID_4115_" class="st0" d="M188.2,609.9c1.3,0.8,1.3,2,0,2.7c-1.3,0.8-3.4,0.8-4.8,0c-1.3-0.8-1.3-2,0-2.7
				C184.8,609.1,186.9,609.1,188.2,609.9z"/>
			<path id="XMLID_4113_" class="st0" d="M200.7,602.7c1.3,0.8,1.3,2,0,2.7c-1.3,0.8-3.4,0.8-4.8,0c-1.3-0.8-1.3-2,0-2.7
				C197.2,602,199.3,602,200.7,602.7z"/>
			<ellipse id="XMLID_4111_" class="st0" cx="210.7" cy="596.9" rx="3.4" ry="1.9"/>
			<path id="XMLID_4109_" class="st0" d="M283.2,610.1c1.3-0.8,3.4-0.8,4.8,0c1.3,0.8,1.3,2,0,2.7c-1.3,0.8-3.4,0.8-4.8,0
				C281.8,612.1,281.8,610.8,283.2,610.1z"/>
			<path id="XMLID_4107_" class="st0" d="M300.4,602.9c1.3,0.8,1.3,2,0,2.7c-1.3,0.8-3.4,0.8-4.8,0c-1.3-0.8-1.3-2,0-2.7
				C296.9,602.1,299.1,602.1,300.4,602.9z"/>
			<path id="XMLID_4105_" class="st0" d="M312.8,595.7c1.3,0.8,1.3,2,0,2.7c-1.3,0.8-3.4,0.8-4.8,0c-1.3-0.8-1.3-2,0-2.7
				C309.4,594.9,311.5,594.9,312.8,595.7z"/>
			<path id="XMLID_4103_" class="st0" d="M325.3,588.5c1.3,0.8,1.3,2,0,2.7c-1.3,0.8-3.4,0.8-4.8,0c-1.3-0.8-1.3-2,0-2.7
				C321.8,587.8,324,587.8,325.3,588.5z"/>
			<path id="XMLID_4101_" class="st0" d="M270.7,602.9c1.3-0.8,3.4-0.8,4.8,0c1.3,0.8,1.3,2,0,2.7c-1.3,0.8-3.4,0.8-4.8,0
				C269.4,604.9,269.4,603.7,270.7,602.9z"/>
			<path id="XMLID_4099_" class="st0" d="M287.9,595.7c1.3,0.8,1.3,2,0,2.7c-1.3,0.8-3.4,0.8-4.8,0c-1.3-0.8-1.3-2,0-2.7
				C284.5,594.9,286.6,594.9,287.9,595.7z"/>
			<path id="XMLID_4097_" class="st0" d="M300.4,588.5c1.3,0.8,1.3,2,0,2.7c-1.3,0.8-3.4,0.8-4.8,0c-1.3-0.8-1.3-2,0-2.7
				C296.9,587.8,299.1,587.8,300.4,588.5z"/>
			<ellipse id="XMLID_4095_" class="st0" cx="310.4" cy="582.7" rx="3.4" ry="1.9"/>
			<path id="XMLID_4093_" class="st0" d="M325.3,574.1c1.3,0.8,1.3,2,0,2.7c-1.3,0.8-3.4,0.8-4.8,0c-1.3-0.8-1.3-2,0-2.7
				C321.8,573.4,324,573.4,325.3,574.1z"/>
			<path id="XMLID_4091_" class="st0" d="M258.3,595.7c1.3-0.8,3.4-0.8,4.8,0c1.3,0.8,1.3,2,0,2.7c-1.3,0.8-3.4,0.8-4.8,0
				C257,597.7,256.9,596.5,258.3,595.7z"/>
			<ellipse id="XMLID_4089_" class="st0" cx="273.1" cy="589.9" rx="3.4" ry="1.9"/>
			<ellipse id="XMLID_4087_" class="st0" cx="285.5" cy="582.7" rx="3.4" ry="1.9"/>
			<ellipse id="XMLID_4085_" class="st0" cx="298" cy="575.5" rx="3.4" ry="1.9"/>
			<ellipse id="XMLID_4083_" class="st0" cx="310.4" cy="568.3" rx="3.4" ry="1.9"/>
			<path id="XMLID_4081_" class="st0" d="M325.3,559.8c1.3,0.8,1.3,2,0,2.7c-1.3,0.8-3.4,0.8-4.8,0c-1.3-0.8-1.3-2,0-2.7
				C321.8,559,324,559,325.3,559.8z"/>
			<path id="XMLID_4079_" class="st0" d="M245.7,588.4c1.3-0.8,3.4-0.8,4.8,0c1.3,0.8,1.3,2,0,2.7c-1.3,0.8-3.4,0.8-4.8,0
				C244.4,590.4,244.4,589.2,245.7,588.4z"/>
			<path id="XMLID_4077_" class="st0" d="M262.9,581.3c1.3,0.8,1.3,2,0,2.7c-1.3,0.8-3.4,0.8-4.8,0c-1.3-0.8-1.3-2,0-2.7
				C259.5,580.5,261.6,580.5,262.9,581.3z"/>
			<path id="XMLID_4075_" class="st0" d="M275.4,574.1c1.3,0.8,1.3,2,0,2.7c-1.3,0.8-3.4,0.8-4.8,0c-1.3-0.8-1.3-2,0-2.7
				C271.9,573.3,274.1,573.3,275.4,574.1z"/>
			<ellipse id="XMLID_4073_" class="st0" cx="285.4" cy="568.3" rx="3.4" ry="1.9"/>
			<path id="XMLID_4071_" class="st0" d="M300.3,559.7c1.3,0.8,1.3,2,0,2.7c-1.3,0.8-3.4,0.8-4.8,0c-1.3-0.8-1.3-2,0-2.7
				C296.8,558.9,299,558.9,300.3,559.7z"/>
			<path id="XMLID_4069_" class="st0" d="M312.7,552.5c1.3,0.8,1.3,2,0,2.7c-1.3,0.8-3.4,0.8-4.8,0c-1.3-0.8-1.3-2,0-2.7
				C309.3,551.8,311.4,551.8,312.7,552.5z"/>
			<path id="XMLID_4067_" class="st0" d="M300.3,545.3c1.3,0.8,1.3,2,0,2.7c-1.3,0.8-3.4,0.8-4.8,0c-1.3-0.8-1.3-2,0-2.7
				C296.8,544.6,299,544.6,300.3,545.3z"/>
		</g>
		<g id="XMLID_3990_">
			<path id="XMLID_4064_" class="st0" d="M303.5,847c1.3,0.8,1.3,2,0,2.7c-1.3,0.8-3.4,0.8-4.8,0c-1.3-0.8-1.3-2,0-2.7
				C300.1,846.2,302.2,846.2,303.5,847z"/>
			<ellipse id="XMLID_4062_" class="st0" cx="313.6" cy="841.2" rx="3.4" ry="1.9"/>
			<path id="XMLID_4060_" class="st0" d="M328.4,832.6c1.3,0.8,1.3,2,0,2.7c-1.3,0.8-3.4,0.8-4.8,0c-1.3-0.8-1.3-2,0-2.7
				C325,831.9,327.1,831.9,328.4,832.6z"/>
			<path id="XMLID_4058_" class="st0" d="M340.9,825.4c1.3,0.8,1.3,2,0,2.7c-1.3,0.8-3.4,0.8-4.8,0c-1.3-0.8-1.3-2,0-2.7
				C337.4,824.7,339.6,824.7,340.9,825.4z"/>
			<path id="XMLID_4056_" class="st0" d="M353.3,818.2c1.3,0.8,1.3,2,0,2.7c-1.3,0.8-3.4,0.8-4.8,0c-1.3-0.8-1.3-2,0-2.7
				C349.9,817.5,352,817.5,353.3,818.2z"/>
			<path id="XMLID_4054_" class="st0" d="M365.8,811.1c1.3,0.8,1.3,2,0,2.7c-1.3,0.8-3.4,0.8-4.8,0c-1.3-0.8-1.3-2,0-2.7
				C362.3,810.3,364.5,810.3,365.8,811.1z"/>
			<ellipse id="XMLID_4052_" class="st0" cx="375.8" cy="805.2" rx="3.4" ry="1.9"/>
			<path id="XMLID_4050_" class="st0" d="M390.7,796.7c1.3,0.8,1.3,2,0,2.7c-1.3,0.8-3.4,0.8-4.8,0c-1.3-0.8-1.3-2,0-2.7
				C387.2,795.9,389.4,795.9,390.7,796.7z"/>
			<path id="XMLID_4048_" class="st0" d="M278.7,847c1.3,0.8,1.3,2,0,2.7c-1.3,0.8-3.4,0.8-4.8,0c-1.3-0.8-1.3-2,0-2.7
				C275.2,846.2,277.3,846.2,278.7,847z"/>
			<path id="XMLID_4046_" class="st0" d="M291.1,839.8c1.3,0.8,1.3,2,0,2.7s-3.4,0.8-4.8,0c-1.3-0.8-1.3-2,0-2.7
				C287.7,839,289.8,839,291.1,839.8z"/>
			<path id="XMLID_4044_" class="st0" d="M303.5,832.6c1.3,0.8,1.3,2,0,2.7c-1.3,0.8-3.4,0.8-4.8,0c-1.3-0.8-1.3-2,0-2.7
				C300.1,831.9,302.2,831.9,303.5,832.6z"/>
			<path id="XMLID_4042_" class="st0" d="M316,825.4c1.3,0.8,1.3,2,0,2.7c-1.3,0.8-3.4,0.8-4.8,0c-1.3-0.8-1.3-2,0-2.7
				C312.5,824.7,314.7,824.7,316,825.4z"/>
			<path id="XMLID_4040_" class="st0" d="M328.4,818.2c1.3,0.8,1.3,2,0,2.7c-1.3,0.8-3.4,0.8-4.8,0c-1.3-0.8-1.3-2,0-2.7
				C325,817.5,327.1,817.5,328.4,818.2z"/>
			<ellipse id="XMLID_4038_" class="st0" cx="338.5" cy="812.4" rx="3.4" ry="1.9"/>
			<ellipse id="XMLID_4036_" class="st0" cx="351" cy="805.2" rx="3.4" ry="1.9"/>
			<path id="XMLID_4034_" class="st0" d="M365.8,796.7c1.3,0.8,1.3,2,0,2.7c-1.3,0.8-3.4,0.8-4.8,0c-1.3-0.8-1.3-2,0-2.7
				C362.3,795.9,364.5,795.9,365.8,796.7z"/>
			<ellipse id="XMLID_4032_" class="st0" cx="375.8" cy="790.9" rx="3.4" ry="1.9"/>
			<ellipse id="XMLID_4030_" class="st0" cx="388.3" cy="783.7" rx="3.4" ry="1.9"/>
			<ellipse id="XMLID_4028_" class="st0" cx="263.8" cy="841.2" rx="3.4" ry="1.9"/>
			<path id="XMLID_4026_" class="st0" d="M278.7,832.6c1.3,0.8,1.3,2,0,2.7c-1.3,0.8-3.4,0.8-4.8,0c-1.3-0.8-1.3-2,0-2.7
				C275.2,831.9,277.3,831.9,278.7,832.6z"/>
			<path id="XMLID_4024_" class="st0" d="M291.1,825.4c1.3,0.8,1.3,2,0,2.7c-1.3,0.8-3.4,0.8-4.8,0c-1.3-0.8-1.3-2,0-2.7
				C287.7,824.7,289.8,824.7,291.1,825.4z"/>
			<path id="XMLID_4022_" class="st0" d="M303.5,818.2c1.3,0.8,1.3,2,0,2.7c-1.3,0.8-3.4,0.8-4.8,0c-1.3-0.8-1.3-2,0-2.7
				C300.1,817.5,302.2,817.5,303.5,818.2z"/>
			<ellipse id="XMLID_4020_" class="st0" cx="313.6" cy="812.4" rx="3.4" ry="1.9"/>
			<path id="XMLID_4018_" class="st0" d="M328.4,803.9c1.3,0.8,1.3,2,0,2.7c-1.3,0.8-3.4,0.8-4.8,0c-1.3-0.8-1.3-2,0-2.7
				C325,803.1,327.1,803.1,328.4,803.9z"/>
			<path id="XMLID_4016_" class="st0" d="M340.9,796.7c1.3,0.8,1.3,2,0,2.7c-1.3,0.8-3.4,0.8-4.8,0c-1.3-0.8-1.3-2,0-2.7
				C337.4,795.9,339.6,795.9,340.9,796.7z"/>
			<path id="XMLID_4014_" class="st0" d="M353.3,789.5c1.3,0.8,1.3,2,0,2.7c-1.3,0.8-3.4,0.8-4.8,0c-1.3-0.8-1.3-2,0-2.7
				C349.9,788.7,352,788.7,353.3,789.5z"/>
			<ellipse id="XMLID_4012_" class="st0" cx="363.4" cy="783.7" rx="3.4" ry="1.9"/>
			<path id="XMLID_4010_" class="st0" d="M378.2,775.1c1.3,0.8,1.3,2,0,2.7c-1.3,0.8-3.4,0.8-4.8,0c-1.3-0.8-1.3-2,0-2.7
				C374.8,774.4,376.9,774.4,378.2,775.1z"/>
			<path id="XMLID_4008_" class="st0" d="M266.2,825.4c1.3,0.8,1.3,2,0,2.7c-1.3,0.8-3.4,0.8-4.8,0c-1.3-0.8-1.3-2,0-2.7
				S264.9,824.7,266.2,825.4z"/>
			<path id="XMLID_4006_" class="st0" d="M278.7,818.2c1.3,0.8,1.3,2,0,2.7c-1.3,0.8-3.4,0.8-4.8,0c-1.3-0.8-1.3-2,0-2.7
				C275.2,817.5,277.3,817.5,278.7,818.2z"/>
			<ellipse id="XMLID_4004_" class="st0" cx="288.7" cy="812.4" rx="3.4" ry="1.9"/>
			<path id="XMLID_4002_" class="st0" d="M303.5,803.9c1.3,0.8,1.3,2,0,2.7c-1.3,0.8-3.4,0.8-4.8,0c-1.3-0.8-1.3-2,0-2.7
				C300.1,803.1,302.2,803.1,303.5,803.9z"/>
			<ellipse id="XMLID_4000_" class="st0" cx="313.6" cy="798.1" rx="3.4" ry="1.9"/>
			<ellipse id="XMLID_3998_" class="st0" cx="326.1" cy="790.9" rx="3.4" ry="1.9"/>
			<path id="XMLID_3996_" class="st0" d="M336.1,782.3c1.3-0.8,3.4-0.8,4.8,0c1.3,0.8,1.3,2,0,2.7c-1.3,0.8-3.4,0.8-4.8,0
				C334.8,784.3,334.8,783.1,336.1,782.3C337.4,781.6,334.8,783.1,336.1,782.3z"/>
			<path id="XMLID_3994_" class="st0" d="M348.6,775.1c1.3-0.8,3.4-0.8,4.8,0c1.3,0.8,1.3,2,0,2.7c-1.3,0.8-3.4,0.8-4.8,0
				C347.3,777.1,347.3,775.9,348.6,775.1C349.9,774.4,347.3,775.9,348.6,775.1z"/>
			<ellipse id="XMLID_3992_" class="st0" cx="363.4" cy="769.3" rx="3.4" ry="1.9"/>
		</g>
	</g>
	<g id="XMLID_2400_">
		<g id="XMLID_3685_">
			<g id="XMLID_3976_">
				<path id="XMLID_3986_" class="st1" d="M778.7,166.6c-0.4-0.2-0.8-0.2-1.2,0.1c-3.3,2.2-18.8,13.8-17.3,38.3
					c1.5,25.2,18.9,30.7,21.8,31.5c0.3,0.1,0.5,0.1,0.7,0c2.7-1.1,19.3-8.7,17.8-33.8C799,178,782.2,168.3,778.7,166.6z"/>
				<path id="XMLID_3984_" class="st2" d="M800.3,201.6c-0.6-10.7-4.2-18.6-8.3-24.2c-2.2-1.7-4-2.7-5-3.1c-0.4-0.2-0.8-0.2-1.2,0.1
					c-3.3,2.2-18.8,13.8-17.3,38.3c0.5,8.6,2.9,14.8,5.9,19.4c3.4,2.2,6.3,3.1,7.3,3.4c0.2,0.1,0.5,0.1,0.7,0
					C785.2,234.4,801.8,226.7,800.3,201.6z"/>
				<path id="XMLID_3978_" class="st3" d="M782.2,238.2c-0.2,0-0.5,0-0.7-0.1c-3.6-0.9-21.5-6.9-23-33
					c-1.5-25.5,14.8-37.7,18.1-39.8c0.9-0.6,2-0.7,2.9-0.2l0,0c3.5,1.8,21.2,11.9,22.7,37.4c1.6,26.1-15.5,34.2-18.9,35.5
					C782.9,238.1,782.5,238.2,782.2,238.2z M778.2,168.2c-3.5,2.4-17.7,13.5-16.3,36.6c1.4,23.7,17.3,29.1,20.5,29.9
					c2.7-1.2,17.8-8.4,16.4-32.1C797.3,179.6,781.9,170.2,778.2,168.2z"/>
			</g>
			<g id="XMLID_3966_">
				<path id="XMLID_3974_" class="st1" d="M768.5,790.3L768.5,790.3c-5.9,0-10.6-4.7-10.6-10.6l0.2-364.9c0-5.9,4.7-10.6,10.6-10.6
					l0,0c5.9,0,10.6,4.7,10.6,10.6l-0.2,364.9C779.1,785.6,774.4,790.3,768.5,790.3z"/>
				<path id="XMLID_3968_" class="st3" d="M768.5,792.1c-6.8,0-12.3-5.5-12.3-12.3l0.2-364.9c0-6.8,5.5-12.3,12.3-12.3
					c6.8,0,12.3,5.5,12.3,12.3l-0.2,364.9C780.9,786.5,775.3,792.1,768.5,792.1z M768.7,405.9c-4.9,0-8.9,4-8.9,8.9l-0.2,364.9
					c0,4.9,4,8.9,8.9,8.9s8.9-4,8.9-8.9l0.2-364.9C777.6,409.9,773.6,405.9,768.7,405.9z"/>
			</g>
			<g id="XMLID_3956_">
				
					<ellipse id="XMLID_3964_" transform="matrix(0.9739 -0.227 0.227 0.9739 -61.0319 183.8283)" class="st1" cx="768.7" cy="357.3" rx="101" ry="101"/>
				<path id="XMLID_3958_" class="st3" d="M768.7,460C712.1,460,666,413.9,666,357.3c0-56.7,46.1-102.7,102.7-102.7
					c56.7,0,102.8,46.1,102.8,102.7C871.5,413.9,825.4,460,768.7,460z M768.7,258c-54.7,0-99.3,44.5-99.3,99.3
					c0,54.8,44.5,99.3,99.3,99.3c54.8,0,99.3-44.5,99.3-99.3C868,302.5,823.5,258,768.7,258z"/>
			</g>
			<g id="XMLID_3946_">
				<path id="XMLID_3954_" class="st1" d="M623.2,302.3c-0.2-0.8,0.1-1.6,0.7-2.2c5.4-5.1,33.9-28.6,78.5-14.9
					c45.8,14.1,48.3,48.8,48.4,54.3c0,0.5-0.1,1-0.4,1.4c-3.2,4.5-24.7,31.9-70.5,17.8C635.2,344.9,624.9,309.5,623.2,302.3z"/>
				<path id="XMLID_3948_" class="st3" d="M704.8,364.4c-7.5,0-16-1.2-25.4-4.1c-45.6-14-56.2-50.4-57.8-57.6v0
					c-0.3-1.4,0.1-2.9,1.2-3.9c5.4-5,34.6-29.3,80.2-15.3c46.5,14.3,49.5,49.1,49.6,55.9c0,0.9-0.2,1.7-0.7,2.4
					C748.7,346.2,734.1,364.4,704.8,364.4z M624.9,301.9c1.6,6.8,11.7,41.6,55.5,55.1c44.2,13.6,64.9-11.9,68.6-17.2
					c0.1-0.1,0.1-0.2,0.1-0.3c-0.1-6.4-3-39.1-47.2-52.7c-43.8-13.4-71.7,9.7-76.8,14.5C624.9,301.5,624.8,301.6,624.9,301.9
					L624.9,301.9z"/>
			</g>
			<g id="XMLID_3934_">
				<path id="XMLID_3944_" class="st1" d="M741.4,203.4c0.3-0.8,1-1.3,1.8-1.4c7.4-1,44.2-3.7,72.6,33.4c29.2,38,11.1,67.7,8,72.3
					c-0.3,0.4-0.7,0.7-1.1,0.9c-5.2,1.8-38.6,11.6-67.8-26.4C726.5,245.1,738.6,210.2,741.4,203.4z"/>
				<path id="XMLID_3942_" class="st2" d="M818.5,239.5c-1.4-1.8-2.7-3.4-4.1-5c-22.5-14.4-44.3-12.8-49.7-12.1
					c-0.9,0.1-1.5,0.6-1.8,1.4c-2.8,6.9-14.9,41.7,13.5,78.8c1.1,1.4,2.1,2.7,3.2,3.9c22,13.4,41.9,7.5,45.9,6.1
					c0.5-0.2,0.8-0.5,1.1-0.9C829.6,307.2,847.7,277.5,818.5,239.5z"/>
				<path id="XMLID_3936_" class="st3" d="M806.6,312.8c-14.1,0-34.3-5.3-53-29.6c-29.1-37.8-16.5-73.7-13.7-80.5l0,0
					c0.6-1.4,1.7-2.3,3.2-2.5c7.3-1,45.1-3.8,74.2,34c29.6,38.6,11.9,68.7,8,74.3c-0.5,0.7-1.2,1.2-2,1.5
					C820.9,311,814.8,312.8,806.6,312.8z M750.9,203.2c-3.4,0-6,0.3-7.4,0.4c-0.2,0-0.4,0.1-0.5,0.4l0,0c-2.7,6.5-14.6,40.7,13.3,77
					c28.2,36.7,59.8,27.9,65.8,25.8l0.3-0.2c3.6-5.3,20.3-33.6-7.9-70.3C792.2,207.3,764.6,203.2,750.9,203.2z"/>
			</g>
			<g id="XMLID_3924_">
				<path id="XMLID_3932_" class="st1" d="M598.1,322c-0.8,0.5-1.3,1.3-1.3,2.2c0,8.2,2.3,48.7,46.8,74.5c45.6,26.5,75.5,2.5,80-1.6
					c0.4-0.4,0.7-0.8,0.8-1.4c1.3-5.9,7.2-43.8-38.4-70.2C641.5,299.8,605.2,318,598.1,322z"/>
				<path id="XMLID_3926_" class="st3" d="M685,412.8c-11.9,0-26.1-3.2-42.3-12.6c-45.3-26.3-47.6-67.9-47.6-76
					c0-1.6,0.8-2.9,2.2-3.7l0,0c7-4,44.3-22.7,89.6,3.6c46.2,26.8,40.8,64.8,39.2,72.1c-0.2,0.9-0.6,1.7-1.3,2.3
					C721.1,401.7,707.1,412.8,685,412.8z M599,323.5c-0.3,0.2-0.4,0.4-0.4,0.7c0,7.7,2.2,47.7,45.9,73c44.2,25.6,72.7,3.4,78-1.4
					c0.1-0.1,0.2-0.2,0.2-0.4c1.5-6.9,6.6-42.8-37.6-68.4C641.4,301.8,605.7,319.7,599,323.5L599,323.5z"/>
			</g>
			<g id="XMLID_3914_">
				<path id="XMLID_3922_" class="st1" d="M901.1,424.6c0.8-0.5,1.2-1.4,1.1-2.3c-0.7-8.1-6.6-48.3-53.2-70.1
					c-47.8-22.3-75.4,4.2-79.6,8.6c-0.4,0.4-0.6,0.9-0.7,1.4c-0.7,6-3.3,44.2,44.5,66.6C859.9,450.6,894.4,429.3,901.1,424.6z"/>
				<path id="XMLID_3916_" class="st3" d="M854.5,440.2c-12.3,0-26.5-2.5-41.9-9.8c-48.4-22.6-46.3-60.9-45.4-68.3
					c0.1-0.9,0.5-1.7,1.1-2.4c5.1-5.5,33.2-31.6,81.6-9c47.5,22.2,53.4,63.5,54.1,71.5c0.1,1.6-0.5,3-1.8,3.9l0,0
					C897.7,429.2,880,440.2,854.5,440.2z M812.6,345.1c-24.3,0-38.4,13.3-41.8,17c-0.1,0.1-0.2,0.3-0.2,0.5
					c-0.9,7-2.8,43.2,43.5,64.8c45.8,21.4,79.8,0.4,86.1-4.1l0,0c0.3-0.2,0.4-0.4,0.4-0.8c-0.7-7.7-6.4-47.3-52.2-68.7
					C834.7,347.4,822.7,345.1,812.6,345.1z"/>
			</g>
			<g id="XMLID_3904_">
				<path id="XMLID_3912_" class="st1" d="M562.6,369c-0.2,0.4-0.3,0.8,0,1.2c1.9,3.4,12,20,36.6,20.7c25.2,0.8,32.3-16.1,33.3-18.8
					c0.1-0.2,0.1-0.5,0-0.7c-0.8-2.8-6.9-20-32.1-20.8C575.8,349.8,564.7,365.6,562.6,369z"/>
				<path id="XMLID_3906_" class="st3" d="M600.8,392.2c-0.6,0-1.1,0-1.7,0c-25.3-0.8-35.8-18-37.7-21.4c-0.4-0.8-0.4-1.7,0.1-2.5
					c2.1-3.3,13.6-19.8,38.9-19c25.8,0.8,32.3,18.3,33.3,21.8c0.1,0.5,0.1,1.1,0,1.5C632.5,375.9,625.3,392.2,600.8,392.2z
					 M562.6,369l1.1,0.7c1.7,3.1,11.6,19.2,35.5,20c24,0.7,30.9-14.8,32-18c-0.9-3.1-6.8-19.1-30.9-19.8
					c-23.7-0.7-34.7,14.7-36.6,17.8v0L562.6,369z"/>
			</g>
			<g id="XMLID_3894_">
				<path id="XMLID_3902_" class="st1" d="M601.9,432.4c-0.3,0.3-0.5,0.7-0.4,1.2c0.9,3.8,6.4,22.4,29.9,29.5
					c24.1,7.3,35.4-7.1,37-9.5c0.1-0.2,0.2-0.5,0.2-0.7c-0.1-2.9-1.4-21.2-25.6-28.5C619.6,417.3,604.7,429.8,601.9,432.4z"/>
				<path id="XMLID_3896_" class="st3" d="M644.4,466.9c-4,0-8.5-0.6-13.5-2.1c-24.4-7.4-30.2-26.9-31.1-30.8
					c-0.2-1,0.1-2.1,0.9-2.8v0c2.9-2.7,18.5-15.8,42.9-8.4c25,7.6,26.7,26.4,26.8,30.1c0,0.6-0.2,1.2-0.5,1.7
					C668.2,457,660.3,466.9,644.4,466.9z M603.3,433.5c1,4.1,6.6,21.3,28.7,28c22.8,6.9,33.3-6.2,35.1-8.8
					c-0.2-3-1.7-19.6-24.4-26.5C620.6,419.4,606.4,430.6,603.3,433.5z"/>
			</g>
			<g id="XMLID_3882_">
				<path id="XMLID_3892_" class="st1" d="M748.9,366.2c-0.8-0.1-1.6,0.2-2.1,0.8c-4.5,5.5-25.2,34.3-9.1,76.1
					c16.4,43,49.9,43.1,55.1,42.8c0.5,0,0.9-0.2,1.3-0.5c4.1-3.3,28.9-25.7,12.5-68.7C790.6,375,756,367.4,748.9,366.2z"/>
				<path id="XMLID_3890_" class="st2" d="M773.6,403.7c-0.8-0.1-1.6,0.2-2.1,0.8c-4.3,5.3-23.4,31.8-11,70.8
					c14.5,11,29.2,11,32.6,10.9c0.5,0,0.9-0.2,1.3-0.5c4-3.2,27.6-24.5,13.7-65.3C793.3,407.7,778,404.4,773.6,403.7z"/>
				<path id="XMLID_3884_" class="st3" d="M791.2,487.8c-9.4,0-39.5-3.3-55.1-44c-16.4-42.8,5-72.4,9.4-77.9
					c0.9-1.1,2.3-1.7,3.7-1.4c7,1.1,42.6,8.9,59,51.7c16.7,43.6-7.9,66.5-13,70.6c-0.6,0.5-1.4,0.8-2.3,0.9
					C792.5,487.7,791.9,487.8,791.2,487.8z M748.5,367.9c-0.1,0-0.3,0.1-0.4,0.2c-4.2,5.2-24.6,33.4-8.9,74.4
					c15.9,41.4,47.2,42,53.4,41.7c5-4,28.1-25.4,12.2-66.8c-15.7-41-49.7-48.4-56.3-49.5l0,0C748.6,367.9,748.6,367.9,748.5,367.9z"
					/>
			</g>
			<g id="XMLID_3872_">
				<path id="XMLID_3880_" class="st1" d="M669.2,219.7c0.3-0.8,1-1.3,1.8-1.4c7.4-1,44.2-3.7,72.6,33.4c29.2,38,11.1,67.7,8,72.3
					c-0.3,0.4-0.7,0.7-1.1,0.9c-5.2,1.8-38.6,11.6-67.8-26.4C654.3,261.4,666.4,226.6,669.2,219.7z"/>
				<path id="XMLID_3874_" class="st3" d="M734.3,329.1c-14,0-34.3-5.3-53-29.6c-29.1-37.8-16.6-73.7-13.7-80.5l0,0
					c0.6-1.4,1.8-2.3,3.2-2.5c7.3-1,45.1-3.8,74.2,34c29.6,38.6,11.9,68.7,8,74.3c-0.5,0.7-1.2,1.2-2,1.5
					C748.7,327.3,742.6,329.1,734.3,329.1z M678.6,219.6c-3.4,0-6,0.3-7.4,0.4c-0.2,0-0.4,0.1-0.5,0.4l0,0
					c-2.7,6.5-14.6,40.7,13.3,77c28.2,36.7,59.8,27.9,65.8,25.8l0.3-0.2c3.6-5.3,20.3-33.6-7.9-70.3
					C719.9,223.6,692.3,219.6,678.6,219.6z"/>
			</g>
			<g id="XMLID_3862_">
				<path id="XMLID_3870_" class="st3" d="M855.4,479c0.4-0.1,0.8-0.4,0.9-0.8c1.3-3.7,6.6-22.3-9.4-41
					c-16.4-19.1-33.7-13-36.4-11.9c-0.2,0.1-0.4,0.3-0.6,0.5c-1.5,2.5-10.1,18.6,6.3,37.7C832.3,482.2,851.5,479.7,855.4,479z"/>
				<path id="XMLID_3864_" class="st3" d="M849.3,481.3c-8.2,0-22.2-2.4-34.3-16.5c-17.1-19.8-8.4-36.6-6.5-39.7
					c0.3-0.5,0.8-0.9,1.4-1.2c3.4-1.4,21.3-7.5,38.3,12.3c16.7,19.4,11,38.9,9.7,42.7c-0.3,1-1.2,1.7-2.2,1.9l0,0
					C854.6,480.9,852.4,481.3,849.3,481.3z M820.5,425.3c-4.7,0-8.1,1.2-9.3,1.7c-1.5,2.6-9.1,17.5,6.4,35.5
					c15,17.5,33,15.6,37.2,14.9c1.3-4,5.9-21.5-9.2-39C836.4,427.8,827.2,425.3,820.5,425.3z"/>
			</g>
			<g id="XMLID_3850_">
				<path id="XMLID_3860_" class="st1" d="M679.5,286.5c0.4-0.1,0.8-0.4,0.9-0.8c1.3-3.7,6.6-22.3-9.4-41
					c-16.4-19.1-33.7-13-36.4-11.9c-0.2,0.1-0.4,0.3-0.6,0.5c-1.5,2.5-10.1,18.6,6.3,37.7C656.4,289.7,675.6,287.2,679.5,286.5z"/>
				<path id="XMLID_3858_" class="st2" d="M679.7,287.3c0.4-0.1,0.8-0.4,0.9-0.8c1.3-3.7,6.6-22.3-9.4-41c-0.9-1-1.7-1.9-2.6-2.7
					c-9.6-3.1-17.2-0.3-18.9,0.4c-0.2,0.1-0.4,0.3-0.6,0.5c-1.5,2.5-10.1,18.6,6.3,37.7c1.2,1.4,2.4,2.6,3.6,3.8
					C668.9,288.9,677.3,287.8,679.7,287.3z"/>
				<path id="XMLID_3852_" class="st3" d="M673.4,288.7c-8.2,0-22.2-2.4-34.3-16.5c-17.1-19.8-8.4-36.6-6.5-39.7
					c0.3-0.5,0.8-0.9,1.4-1.2c3.4-1.4,21.3-7.5,38.3,12.3c16.7,19.4,11,38.9,9.7,42.7c-0.3,1-1.2,1.7-2.2,1.9l0,0
					C678.7,288.4,676.5,288.7,673.4,288.7z M644.6,232.8c-4.7,0-8.1,1.2-9.3,1.7c-1.5,2.6-9.1,17.5,6.4,35.5
					c15,17.5,33,15.6,37.2,14.9c1.3-4,5.9-21.5-9.2-39C660.5,235.3,651.3,232.8,644.6,232.8z"/>
			</g>
			<g id="XMLID_3840_">
				<path id="XMLID_3848_" class="st1" d="M661,497.6c0.2,0.4,0.6,0.6,1.1,0.6c3.9,0,23.3-0.9,35.8-22.1
					c12.8-21.7,1.5-36.1-0.5-38.2c-0.2-0.2-0.4-0.3-0.6-0.4c-2.8-0.6-20.9-3.6-33.7,18.1C650.5,476.7,659.1,494.2,661,497.6z"/>
				<path id="XMLID_3842_" class="st3" d="M662.2,499.9c-0.1,0-0.1,0-0.2,0c-1.1,0-2-0.6-2.5-1.5v0c-1.9-3.4-10.9-21.7,2-43.7
					c13.3-22.5,32-19.7,35.6-18.9c0.6,0.1,1.2,0.5,1.6,0.9c2.4,2.8,13.9,17.8,0.6,40.3C686.5,498.7,666.6,499.9,662.2,499.9z
					 M691.7,438.6c-6.4,0-18.1,2.4-27.2,17.8c-11.7,19.9-4.2,36.3-2.2,40c4.2,0,22.2-1.3,34-21.2c12.1-20.5,1.9-33.8-0.3-36.2
					C695.4,438.9,693.8,438.6,691.7,438.6z"/>
			</g>
			<g id="XMLID_3828_">
				<path id="XMLID_3838_" class="st1" d="M927.8,248.4c-0.1-0.4-0.4-0.7-0.9-0.9c-3.8-1-22.8-4.7-40,12.9
					c-17.6,18-10,34.7-8.7,37.2c0.1,0.2,0.3,0.4,0.5,0.5c2.6,1.3,19.4,8.5,37-9.5C933,271.1,928.9,252.1,927.8,248.4z"/>
				<path id="XMLID_3836_" class="st2" d="M915.6,289.7c11.6-11.9,13.5-24.4,13.2-32.4c-6.2-1.1-22.9-2.4-38.2,13.3
					c-11,11.3-12.2,22-11.2,29.1C883.7,301.5,899.3,306.4,915.6,289.7z"/>
				<path id="XMLID_3830_" class="st3" d="M890.5,302.4c-6.3,0-10.9-2-12.5-2.7c-0.6-0.3-1-0.7-1.3-1.3c-1.7-3.3-9.3-20.6,9-39.2
					c17.9-18.3,37.8-14.3,41.7-13.3c1,0.3,1.8,1,2.1,2.1c1.1,3.8,5.4,23.7-12.4,41.9C907.3,299.8,897.7,302.4,890.5,302.4z
					 M879.7,296.7c3.3,1.6,18.6,7.5,34.9-9.2c16.1-16.5,12.7-34.2,11.7-38.3c-4.1-1-21.9-4-38.1,12.5
					C871.8,278.3,878,293.4,879.7,296.7z"/>
			</g>
			<g id="XMLID_3818_">
				<path id="XMLID_3826_" class="st1" d="M873,227.4c0.9-0.1,1.6,0.3,2.1,1c4.3,6.1,23.7,37.5,4,79.8
					c-20.2,43.5-54.9,41.2-60.4,40.5c-0.5-0.1-0.9-0.3-1.3-0.6c-4-3.8-28.2-28.8-8-72.3C829.1,233.4,865.6,228,873,227.4z"/>
				<path id="XMLID_3820_" class="st3" d="M823.5,350.6c-2.2,0-4-0.2-5-0.3c-0.8-0.1-1.6-0.5-2.3-1c-5-4.7-28.9-30.2-8.4-74.3
					c20.1-43.3,57.7-48.7,65-49.4h0c1.5-0.1,2.8,0.5,3.7,1.7c4.2,6,24.2,38.3,4.1,81.5C863.3,346.2,835.7,350.6,823.5,350.6z
					 M873.1,229.1c-7,0.6-42.9,5.9-62.2,47.4c-19.5,41.9,2.9,65.9,7.6,70.3c0.1,0.1,0.2,0.1,0.3,0.1c6.4,0.8,39.1,2.4,58.6-39.5
					c19.3-41.5,0.2-72.3-3.8-78.1C873.5,229.1,873.4,229.1,873.1,229.1L873.1,229.1z"/>
			</g>
			<g id="XMLID_3806_">
				<path id="XMLID_3816_" class="st1" d="M944.1,294.6c-0.1-0.8-0.6-1.5-1.4-1.8c-6.6-2.7-40-14.3-75.6,13
					c-36.5,28-27,60.1-25.3,65.1c0.2,0.4,0.4,0.8,0.8,1.1c4.4,3,32.9,20.4,69.4-7.7C947.6,337,945,301.7,944.1,294.6z"/>
				<path id="XMLID_3814_" class="st2" d="M944.3,296.5c-14-3-39-4-65.2,16.1c-35.3,27.1-27.6,57.9-25.5,64.5
					c12.3,4.2,33.5,6.2,58.5-12.9C945,338.9,945.2,306.8,944.3,296.5z"/>
				<path id="XMLID_3808_" class="st3" d="M870.6,381.8c-15.3,0-25.8-6.3-28.9-8.4c-0.7-0.5-1.2-1.1-1.5-1.9
					c-2.2-6.2-11.2-38.5,25.9-67c36.3-27.9,70.8-15.9,77.3-13.2c1.3,0.6,2.2,1.7,2.4,3.2c0.9,7,3.7,43.4-32.7,71.3
					C897,378.1,882.4,381.8,870.6,381.8z M916.8,289.8c-13.5,0-30.8,3.7-48.6,17.4c-35.2,27-26.8,57.3-24.7,63.1
					c5.3,3.7,32.3,19.6,67.5-7.4c34.9-26.8,32.2-61.4,31.4-68.1v0c0-0.2-0.1-0.3-0.3-0.4C939.1,293.2,929.7,289.8,916.8,289.8z"/>
			</g>
			<g id="XMLID_3794_">
				<path id="XMLID_3804_" class="st1" d="M875.4,369.2c-0.4,0.2-0.6,0.6-0.6,1.1c0.1,3.9,2,23.2,23.7,34.7
					c22.3,11.8,36.1-0.2,38.2-2.2c0.2-0.2,0.3-0.4,0.3-0.7c0.5-2.9,2.7-21-19.6-32.8C895.7,357.8,878.7,367.2,875.4,369.2z"/>
				<path id="XMLID_3802_" class="st2" d="M937,402.9c0.5-2.9,2.7-21-19.6-32.8c-0.8-0.4-1.6-0.8-2.5-1.2c-14-2.1-24.2,3.5-26.7,5.1
					c-0.4,0.2-0.6,0.6-0.6,1.1c0.1,3.9,2,23.2,23.7,34.7c0.6,0.3,1.2,0.6,1.8,0.9c13.6,1.7,21.9-5.5,23.5-7.1
					C936.9,403.4,937,403.1,937,402.9z"/>
				<path id="XMLID_3796_" class="st3" d="M917.3,411.9c-5.6,0-12.1-1.4-19.6-5.4c-22.6-12-24.4-32.2-24.6-36.2c0-1.1,0.5-2,1.4-2.6
					l0,0c3.3-2.1,21.2-11.9,43.7,0c23.1,12.2,21.1,31,20.5,34.7c-0.1,0.6-0.4,1.2-0.9,1.6C936.1,405.8,928.9,411.9,917.3,411.9z
					 M876.6,370.6c0.2,4.2,2.4,22.2,22.8,33c21,11.1,33.8,0.3,36.2-1.9c0.4-2.9,2.1-19.6-18.9-30.7
					C896.2,360.1,880.2,368.4,876.6,370.6z"/>
			</g>
			<g id="XMLID_3784_">
				<path id="XMLID_3792_" class="st3" d="M849,196.2c-0.3-0.4-0.6-0.6-1.1-0.5c-3.9,0.3-23.1,2.7-33.9,24.8
					c-11.1,22.6,1.4,36.1,3.4,38.1c0.2,0.2,0.4,0.3,0.7,0.3c2.9,0.4,21.1,2,32.2-20.7C861,216.1,851.1,199.4,849,196.2z"/>
				<path id="XMLID_3786_" class="st3" d="M821.1,260.8c-1.5,0-2.6-0.1-3.3-0.2c-0.6-0.1-1.2-0.4-1.6-0.8
					c-2.6-2.6-15.3-16.6-3.8-40.1c11.2-22.9,31.4-25.5,35.4-25.7c1-0.1,2.1,0.4,2.7,1.3l0,0c2.2,3.3,12.6,20.8,1.4,43.7
					C842.3,258.3,827.9,260.8,821.1,260.8z M847.7,197.4c-4.2,0.4-22.1,3.1-32.2,23.8c-10.4,21.3,0.7,33.8,3.1,36.1
					c3,0.3,19.7,1.5,30.1-19.9C858.8,216.7,850,201,847.7,197.4z"/>
			</g>
			<g id="XMLID_3772_">
				<path id="XMLID_3782_" class="st1" d="M736.4,274.5c0.3-0.8,1-1.3,1.8-1.4c7.4-1,44.2-3.7,72.6,33.4c29.2,38,11.1,67.7,8,72.3
					c-0.3,0.4-0.7,0.7-1.1,0.9c-5.2,1.8-38.6,11.6-67.8-26.4C721.5,316.2,733.6,281.3,736.4,274.5z"/>
				<path id="XMLID_3780_" class="st2" d="M798.9,293.3c-21.3-12.3-41.2-10.7-46.4-10.1c-0.9,0.1-1.5,0.6-1.8,1.4
					c-2.8,6.9-14.9,41.7,13.5,78.8c3.5,4.5,7,8.4,10.5,11.6c21,11.5,39.6,6,43.3,4.7c0.5-0.2,0.8-0.5,1.1-0.9
					c3.1-4.5,21.2-34.3-8-72.3C807.2,301.4,803.1,297.1,798.9,293.3z"/>
				<path id="XMLID_3774_" class="st3" d="M801.6,383.8c-14,0-34.3-5.3-53-29.6c-29.1-37.8-16.5-73.7-13.7-80.5v0
					c0.6-1.4,1.7-2.3,3.2-2.5c7.3-1,45.1-3.8,74.2,34c29.6,38.6,11.9,68.7,8,74.3c-0.5,0.7-1.2,1.2-2,1.5
					C815.9,382,809.8,383.8,801.6,383.8z M738,275.1c-2.7,6.5-14.6,40.7,13.3,77c28.2,36.7,59.8,27.9,65.8,25.8l0.3-0.2
					c3.6-5.3,20.3-33.6-7.9-70.3c-27.9-36.3-64-33.6-71-32.7C738.3,274.8,738.1,274.9,738,275.1L738,275.1z"/>
			</g>
			<g id="XMLID_3760_">
				<path id="XMLID_3770_" class="st1" d="M861.4,683.3c0.6-0.4,0.9-1,0.8-1.7c-0.5-6-4.8-35.6-39.2-51.7
					c-35.2-16.5-55.6,3.1-58.7,6.4c-0.3,0.3-0.4,0.6-0.5,1c-0.5,4.4-2.5,32.6,32.8,49.1C830.9,702.5,856.4,686.8,861.4,683.3z"/>
				<path id="XMLID_3768_" class="st2" d="M860.7,682.8c0.6-0.4,0.9-1,0.8-1.7c0-0.6-0.2-1.4-0.3-2.3c-28.8-8.6-45.5,7.4-48.2,10.3
					c-0.3,0.3-0.4,0.6-0.5,1c0,0.3-0.1,0.8-0.1,1.3C838.2,697,856.6,685.7,860.7,682.8z"/>
				<path id="XMLID_3762_" class="st3" d="M826.9,695.2c-9.1,0-19.6-1.9-31.1-7.2c-36-16.8-34.4-45.3-33.8-50.9
					c0.1-0.8,0.4-1.5,0.9-2c3.8-4.1,24.7-23.5,60.7-6.7c35.2,16.5,39.6,47.1,40.2,53.1c0.1,1.3-0.5,2.5-1.5,3.3
					C859,687.1,845.9,695.2,826.9,695.2z M796.1,625.1c-17.7,0-28,9.7-30.5,12.4c-0.7,5.2-2.1,31.6,31.8,47.4
					c33.5,15.7,58.4,0.3,63.1-3l0,0c0.1,0,0.1-0.1,0.1-0.1c-0.5-5.6-4.7-34.6-38.2-50.3C812.2,626.8,803.5,625.1,796.1,625.1z"/>
			</g>
			<g id="XMLID_3749_">
				<path id="XMLID_3758_" class="st1" d="M840.6,530.6c0.6-0.1,1.2,0.2,1.6,0.7c3.1,4.5,17.4,27.6,2.9,58.8
					c-14.9,32-40.5,30.3-44.5,29.9c-0.4,0-0.7-0.2-0.9-0.4c-3-2.8-20.8-21.2-5.9-53.3C808.2,535.1,835.1,531.1,840.6,530.6z"/>
				<path id="XMLID_3756_" class="st2" d="M801,575.5c-9.1,19.6-6,34.1-1.5,43c0.2,0.2,0.5,0.3,0.8,0.4c4,0.5,29.6,2.2,44.5-29.9
					c9.9-21.2,6.4-38.7,2.2-49.1C840.1,540.7,814.9,545.6,801,575.5z"/>
				<path id="XMLID_3751_" class="st3" d="M804.1,621.9c-1.7,0-3-0.1-3.7-0.2c-0.7-0.1-1.4-0.4-1.9-0.9c-3.7-3.5-21.5-22.5-6.3-55.3
					c14.9-32.1,42.8-36.2,48.3-36.7c1.3-0.1,2.4,0.4,3.1,1.5c3.1,4.5,18,28.4,3.1,60.6C833.8,618.6,813.2,621.9,804.1,621.9z
					 M840.7,532.3c-5.1,0.5-31.3,4.3-45.4,34.7c-14.2,30.6,2.1,48.1,5.5,51.3c4.6,0.5,28.5,1.7,42.7-28.9
					C857.6,559,843.7,536.5,840.7,532.3z"/>
			</g>
			<g id="XMLID_3739_">
				<path id="XMLID_3747_" class="st1" d="M887.7,580.2c-0.1-0.6-0.4-1.1-1-1.3c-4.9-2-29.5-10.6-55.7,9.6
					c-26.9,20.7-19.9,44.3-18.6,48c0.1,0.3,0.3,0.6,0.6,0.8c3.2,2.2,24.3,15,51.1-5.7C890.3,611.4,888.4,585.4,887.7,580.2z"/>
				<path id="XMLID_3741_" class="st3" d="M833.6,644.9c-11.4,0-19.3-4.7-21.6-6.3c-0.6-0.4-1-1-1.3-1.7
					c-1.6-4.6-8.4-28.7,19.2-49.9c27-20.7,52.6-11.8,57.4-9.8c1.1,0.5,1.9,1.5,2.1,2.7l0,0c0.7,5.2,2.7,32.2-24.3,53
					C853.2,642.1,842.3,644.9,833.6,644.9z M867.6,577.1c-9.9,0-22.5,2.7-35.6,12.7c-25.7,19.7-19.6,41.8-18.1,46
					c3.7,2.5,23.4,14.1,49.1-5.6c25.5-19.6,23.6-44.9,23-49.8l0,0c0,0,0,0,0,0l1.7-0.2l-1.7,0.2C883.8,579.5,877,577.1,867.6,577.1z
					"/>
			</g>
			<g id="XMLID_3729_">
				<path id="XMLID_3737_" class="st1" d="M739.9,565.3c0.2-0.6,0.7-1,1.4-1c5.4-0.7,32.6-2.7,53.5,24.6c21.5,28,8.2,49.9,5.9,53.3
					c-0.2,0.3-0.5,0.5-0.8,0.6c-3.8,1.4-28.4,8.6-50-19.4C728.9,596.1,737.8,570.4,739.9,565.3z"/>
				<path id="XMLID_3731_" class="st3" d="M788,646.4c-10.5,0-25.6-3.9-39.4-22c-21.6-28.1-12.3-54.7-10.2-59.8v0
					c0.5-1.1,1.5-1.9,2.7-2.1c5.4-0.7,33.6-2.8,55.1,25.3c22,28.7,8.8,51.1,5.9,55.3c-0.4,0.6-1,1-1.7,1.3
					C798.7,645.1,794.1,646.4,788,646.4z M741.5,566c-2,4.8-10.7,29.8,9.7,56.3c20.6,26.8,43.6,20.4,48,18.9
					c2.6-3.8,14.7-24.5-5.8-51.2C773,563.4,746.6,565.3,741.5,566z"/>
			</g>
			<g id="XMLID_3719_">
				<path id="XMLID_3727_" class="st1" d="M750.7,389.3c-0.1-0.8-0.6-1.5-1.4-1.8c-6.6-2.7-40-14.3-75.6,13
					c-36.5,28-27,60.1-25.3,65.1c0.2,0.4,0.4,0.8,0.8,1.1c4.4,3,32.9,20.4,69.4-7.7C754.2,431.7,751.6,396.4,750.7,389.3z"/>
				<path id="XMLID_3721_" class="st3" d="M677.2,476.5c-15.3,0-25.8-6.3-28.9-8.4c-0.7-0.5-1.2-1.1-1.5-1.9
					c-2.2-6.2-11.2-38.5,25.9-67c36.3-27.9,70.8-15.9,77.3-13.2c1.3,0.5,2.2,1.7,2.4,3.1l0,0c0.9,7,3.7,43.4-32.7,71.3
					C703.6,472.7,689,476.5,677.2,476.5z M723.4,384.5c-13.5,0-30.8,3.7-48.6,17.4c-35.2,27-26.8,57.3-24.7,63.1
					c5.3,3.7,32.4,19.6,67.5-7.4c34.8-26.8,32.2-61.4,31.4-68.1v0c0-0.2-0.1-0.3-0.3-0.4C745.6,387.9,736.3,384.5,723.4,384.5z"/>
			</g>
			<g id="XMLID_3709_">
				<path id="XMLID_3717_" class="st1" d="M680.3,420.5c-0.7-0.5-1.1-1.2-1.1-2.1c0.3-7.4,3.8-44.1,45.1-66
					c42.4-22.4,68.6,0.4,72.6,4.3c0.4,0.3,0.6,0.8,0.7,1.3c0.9,5.4,5,40-37.4,62.4C718.9,442.2,686.5,424.5,680.3,420.5z"/>
				<path id="XMLID_3711_" class="st3" d="M719.3,432.8c-21.2,0-36-8.3-40-10.8v0c-1.3-0.8-1.9-2.1-1.9-3.6
					c0.3-7.4,3.8-45.1,46-67.4c43-22.7,69.7-0.2,74.6,4.6c0.6,0.6,1,1.4,1.2,2.2c1.2,6.7,4.8,41.5-38.3,64.2
					C745.6,430.1,731.4,432.8,719.3,432.8z M681.2,419.1c6,3.7,37.7,21.2,78.2-0.2c40.9-21.6,37.6-54.3,36.5-60.6
					c-4.8-4.8-29.8-25.9-70.8-4.3c-40.5,21.4-43.9,57.5-44.2,64.5C680.9,418.8,681,418.9,681.2,419.1L681.2,419.1z"/>
			</g>
			<g id="XMLID_3697_">
				<path id="XMLID_3707_" class="st1" d="M693.8,313.4c-0.4,0.2-0.6,0.6-0.7,1c-0.2,3.9-0.2,23.3,20.3,36.8
					c21,13.9,36,3.3,38.2,1.4c0.2-0.2,0.3-0.4,0.4-0.6c0.8-2.8,4.7-20.7-16.4-34.6C715.1,304,697.3,311.6,693.8,313.4z"/>
				<path id="XMLID_3705_" class="st2" d="M750.8,352.3c0.2-0.2,0.3-0.4,0.4-0.6c0.7-2.7,4.3-19.4-14.3-33
					c-14.5-4.2-25.9,0.7-28.6,2c-0.4,0.2-0.6,0.6-0.7,1c-0.2,3.7-0.2,21.7,17.8,35C739.5,360.5,749,353.7,750.8,352.3z"/>
				<path id="XMLID_3699_" class="st3" d="M734.5,360c-6.2,0-13.7-1.8-22.1-7.4c-21.3-14.1-21.3-34.4-21-38.4c0.1-1.1,0.7-2,1.6-2.5
					l0,0c3.5-1.8,22.2-9.8,43.5,4.2c21.8,14.4,18.1,32.9,17.1,36.5c-0.2,0.6-0.5,1.1-1,1.5C750.9,355.4,744.4,360,734.5,360z
					 M694.8,314.8c-0.2,4.2,0.2,22.3,19.5,35c19.8,13.1,33.6,3.6,36.2,1.5c0.7-2.9,4-19.3-15.9-32.4
					C715.4,306.2,698.6,312.9,694.8,314.8z"/>
			</g>
			<g id="XMLID_3687_">
				<path id="XMLID_3695_" class="st3" d="M833,628.8c-0.4,0.2-0.6,0.6-0.7,1c-0.2,3.9-0.2,23.3,20.3,36.8c21,13.9,36,3.3,38.2,1.4
					c0.2-0.2,0.3-0.4,0.4-0.6c0.8-2.8,4.7-20.7-16.4-34.6C854.3,619.4,836.5,627,833,628.8z"/>
				<path id="XMLID_3689_" class="st3" d="M873.7,675.4c-6.2,0-13.7-1.8-22.1-7.4c-21.3-14.1-21.3-34.4-21-38.4
					c0.1-1.1,0.7-2,1.6-2.5l0,0c3.5-1.8,22.2-9.8,43.5,4.2c21.8,14.4,18.1,32.9,17.1,36.5c-0.2,0.6-0.5,1.1-1,1.5
					C890.1,670.8,883.6,675.4,873.7,675.4z M834.1,630.2c-0.2,4.2,0.2,22.3,19.5,35c19.8,13.1,33.6,3.6,36.2,1.5
					c0.7-2.9,4-19.3-15.9-32.4C854.7,621.7,837.9,628.4,834.1,630.2z"/>
			</g>
		</g>
		<g id="XMLID_3609_">
			<g id="XMLID_3675_">
				<path id="XMLID_3683_" class="st3" d="M171.7,331c0.4-0.1,0.9,0,1.2,0.4c2.7,2.9,15.1,17.8,8,41.3
					c-7.3,24.1-25.6,25.5-28.5,25.6c-0.3,0-0.5-0.1-0.7-0.2c-2.4-1.7-16.8-12.9-9.5-37C149.3,337.4,167.9,331.9,171.7,331z"/>
				<path id="XMLID_3677_" class="st3" d="M152.4,399.9c-0.6,0-1.2-0.2-1.7-0.5c-3-2.1-17.8-13.9-10.2-39
					c7.4-24.4,26.9-30.2,30.8-31.1l0,0c1.1-0.3,2.1,0.1,2.8,0.9c2.7,2.9,15.8,18.5,8.4,42.9C174.9,398.1,156.1,399.8,152.4,399.9
					C152.4,399.9,152.4,399.9,152.4,399.9z M171.8,332.7c-4.1,1-21.3,6.6-28,28.7c-6.9,22.8,6.2,33.3,8.8,35.1
					c3-0.2,19.6-1.7,26.5-24.4C185.9,350,174.6,335.9,171.8,332.7z"/>
			</g>
			<g id="XMLID_3665_">
				<path id="XMLID_3673_" class="st1" d="M179,583.5L179,583.5c5.9,0,10.6-4.7,10.6-10.6l-0.1-128.7c0-5.9-4.7-10.6-10.6-10.6l0,0
					c-5.9,0-10.6,4.7-10.6,10.6l0.1,128.7C168.4,578.8,173.1,583.5,179,583.5z"/>
				<path id="XMLID_3667_" class="st3" d="M179,585.3c-6.8,0-12.3-5.5-12.3-12.3l-0.1-128.7c0-6.8,5.5-12.3,12.3-12.3
					c6.8,0,12.3,5.5,12.3,12.3l0.1,128.7C191.3,579.7,185.8,585.3,179,585.3z M178.9,435.4c-4.9,0-8.9,4-8.9,8.9l0.1,128.7
					c0,4.9,4,8.9,8.9,8.9s8.9-4,8.9-8.9l-0.1-128.7C187.7,439.4,183.7,435.4,178.9,435.4z"/>
			</g>
			<g id="XMLID_3655_">
				<path id="XMLID_3663_" class="st1" d="M86.1,476.5c-0.6-0.4-0.9-1-0.8-1.7c0.5-6,4.8-35.6,39.2-51.7
					c35.2-16.5,55.6,3.1,58.7,6.4c0.3,0.3,0.4,0.6,0.5,1c0.5,4.4,2.5,32.6-32.8,49.1C116.6,495.7,91.1,480,86.1,476.5z"/>
				<path id="XMLID_3657_" class="st3" d="M120.6,488.4c-19,0-32.1-8.2-35.4-10.5l0,0c-1.1-0.8-1.7-2-1.5-3.3
					c0.5-6,4.9-36.6,40.2-53.1c36-16.8,56.8,2.7,60.7,6.7c0.5,0.5,0.8,1.2,0.9,2c0.7,5.6,2.2,34.1-33.8,50.9
					C140.2,486.5,129.7,488.4,120.6,488.4z M151.4,418.3c-7.4,0-16.2,1.7-26.2,6.4c-33.5,15.7-37.7,44.6-38.2,50.3l0.1,0.1
					c4.6,3.2,29.5,18.6,63,3c33.8-15.8,32.4-42.2,31.8-47.3C179.5,428,169.1,418.3,151.4,418.3z"/>
			</g>
			<g id="XMLID_3643_">
				<path id="XMLID_3653_" class="st1" d="M109.1,330.6c-0.6-0.1-1.2,0.2-1.6,0.7c-3.1,4.5-17.4,27.6-2.9,58.8
					c14.9,32,40.5,30.3,44.5,29.9c0.4,0,0.7-0.2,0.9-0.4c3-2.8,20.8-21.2,5.9-53.3C141.4,335.1,114.5,331.1,109.1,330.6z"/>
				<path id="XMLID_3651_" class="st2" d="M149.7,380.4c-14.5-31.2-41.4-35.2-46.9-35.7c-0.6-0.1-1.2,0.2-1.6,0.7
					c-0.1,0.2-0.3,0.4-0.4,0.6c-3.7,10.6-6,27,3.1,46.7c14.9,32,40.5,30.3,44.5,29.9c0.4,0,0.7-0.2,0.9-0.4c0.7-0.7,2.4-2.4,4.2-4.9
					C156.4,408.3,156.9,396,149.7,380.4z"/>
				<path id="XMLID_3645_" class="st3" d="M145.6,421.9c-9.1,0-29.7-3.3-42.6-31.1c-14.9-32.1-0.1-56.1,3.1-60.6
					c0.7-1,1.9-1.6,3.1-1.5l0,0c5.4,0.5,33.3,4.6,48.3,36.7c15.2,32.8-2.5,51.8-6.3,55.3c-0.5,0.5-1.2,0.8-1.9,0.9
					C148.5,421.8,147.2,421.9,145.6,421.9z M108.9,332.3C108.9,332.3,108.9,332.3,108.9,332.3c-2.9,4.2-16.9,26.7-2.8,57.1
					c14.2,30.6,38.1,29.4,42.8,28.9c3.4-3.2,19.7-20.6,5.5-51.3C140.2,336.6,114,332.8,108.9,332.3L108.9,332.3
					C108.9,332.3,108.9,332.3,108.9,332.3z"/>
			</g>
			<g id="XMLID_3631_">
				<path id="XMLID_3641_" class="st1" d="M59.8,373.4c0.1-0.6,0.4-1.1,1-1.3c4.9-2,29.5-10.6,55.7,9.6c26.9,20.7,19.9,44.3,18.6,48
					c-0.1,0.3-0.3,0.6-0.6,0.8c-3.2,2.2-24.3,15-51.1-5.7C57.2,404.6,59.1,378.6,59.8,373.4z"/>
				<path id="XMLID_3639_" class="st2" d="M115.5,396.5c-24.9-19.2-48.4-12.3-54.8-9.9c1.4,10.7,6.7,26,23.4,38.9
					c26.9,20.7,47.9,7.9,51.1,5.7c0.3-0.2,0.4-0.4,0.6-0.7C135.1,420.9,130.7,408.2,115.5,396.5z"/>
				<path id="XMLID_3633_" class="st3" d="M114,438.1c-8.8,0-19.6-2.8-31.6-12c-27-20.7-25-47.8-24.3-53l0,0
					c0.2-1.2,0.9-2.2,2.1-2.7c4.9-2,30.4-10.9,57.4,9.8c27.6,21.2,20.8,45.3,19.2,49.9c-0.2,0.7-0.7,1.2-1.3,1.6
					C133.2,433.4,125.4,438.1,114,438.1z M61.5,373.7c-0.6,5-2.5,30.2,23,49.7c25.7,19.7,45.4,8.1,49.1,5.6
					c1.4-4.2,7.6-26.2-18.1-46C90.1,363.5,66.2,371.8,61.5,373.7z"/>
			</g>
			<g id="XMLID_3621_">
				<path id="XMLID_3629_" class="st1" d="M210.6,358.3c-0.2-0.6-0.7-1-1.4-1c-5.4-0.7-32.6-2.7-53.5,24.6
					c-21.5,28-8.2,49.9-5.9,53.3c0.2,0.3,0.5,0.5,0.8,0.6c3.8,1.4,28.4,8.6,50-19.4C221.6,389.1,212.6,363.4,210.6,358.3z"/>
				<path id="XMLID_3623_" class="st3" d="M162.5,439.4c-6.1,0-10.7-1.3-12.5-2c-0.7-0.2-1.3-0.7-1.7-1.3
					c-2.9-4.2-16.1-26.6,5.9-55.3c21.6-28.1,49.7-26,55.1-25.3c1.2,0.2,2.3,0.9,2.7,2.1c2.1,5.1,11.4,31.7-10.2,59.8
					C188.1,435.5,173,439.4,162.5,439.4z M203.7,358.7c-10,0-30.2,2.9-46.6,24.3c-20.6,26.8-8.5,47.4-5.8,51.3
					c4.4,1.5,27.4,7.9,48-18.9c20.4-26.6,11.7-51.6,9.7-56.3l0,0l1.6-0.7l-1.6,0.6C207.9,358.9,206.1,358.7,203.7,358.7z"/>
			</g>
			<g id="XMLID_3611_">
				<path id="XMLID_3619_" class="st3" d="M114.5,422c0.4,0.2,0.6,0.6,0.7,1c0.2,3.9,0.2,23.3-20.3,36.8c-21,13.9-36,3.3-38.2,1.4
					c-0.2-0.2-0.3-0.4-0.4-0.6c-0.8-2.8-4.7-20.7,16.4-34.6C93.2,412.6,111,420.2,114.5,422z"/>
				<path id="XMLID_3613_" class="st3" d="M73.8,468.6c-9.8,0-16.4-4.6-18.2-6c-0.5-0.4-0.8-0.9-1-1.5c-1-3.6-4.7-22.1,17.1-36.4
					c21.3-14.1,40-6,43.5-4.2l0,0c1,0.5,1.6,1.4,1.6,2.5c0.2,3.9,0.3,24.3-21,38.4C87.4,466.8,79.9,468.6,73.8,468.6z M97.5,420
					c-6.8,0-15.1,1.7-23.9,7.6c-19.8,13.1-16.5,29.5-15.7,32.7c2.4,1.8,16.2,11.3,36-1.8c19.2-12.7,19.7-30.8,19.5-35
					C111.4,422.4,105.5,420,97.5,420z"/>
			</g>
		</g>
		<g id="XMLID_3455_">
			<g id="XMLID_3567_">
				<g id="XMLID_3589_">
					<g id="XMLID_3591_">
						<path id="XMLID_3603_" class="st1" d="M153,635.7c-4.3,0-8.4-1.1-12.1-3.2c-9.4-5.5-14.9-17.2-14.9-32.3V499.6
							c0-26.1,15.5-55.4,35.4-66.9l108.4-62.6c10.1-5.9,20.3-6.4,28.6-1.7c9.4,5.5,14.9,17.2,14.9,32.3v100.6
							c0,26-15.5,55.4-35.4,66.9l-108.4,62.6C163.9,634.1,158.3,635.7,153,635.7z M286.3,381.4c-3,0-6,1.3-8.4,2.7l-108.4,62.6
							c-14.8,8.6-27.3,32.8-27.3,53v100.6c0,9.1,2.5,15.9,6.8,18.4c4,2.3,9,0.4,12.5-1.7l108.4-62.6c14.8-8.6,27.3-32.8,27.3-53
							V400.9c0-9.1-2.5-15.9-6.8-18.4C289.1,381.7,287.7,381.4,286.3,381.4z"/>
						<path id="XMLID_3593_" class="st3" d="M153,637.5c-4.6,0-9-1.2-12.9-3.4c-10-5.8-15.7-18.1-15.7-33.8V499.6
							c0-26.6,15.9-56.7,36.2-68.4L269,368.7c10.7-6.2,21.5-6.8,30.3-1.7c10,5.8,15.7,18.1,15.7,33.8v100.6
							c0,26.6-15.9,56.6-36.2,68.4l-108.4,62.6C164.6,635.7,158.7,637.5,153,637.5z M286.3,367c-5,0-10.3,1.5-15.6,4.6l-108.4,62.6
							c-19.4,11.2-34.5,39.9-34.5,65.4v100.6c0,14.5,5.1,25.7,14,30.8c7.7,4.5,17.3,3.9,26.8-1.7L277,566.8
							c19.4-11.2,34.5-39.9,34.5-65.4V400.9c0-14.5-5.1-25.7-14-30.8C294.1,368,290.3,367,286.3,367z M153.1,621.4
							c-1.8,0-3.5-0.4-4.9-1.3c-4.9-2.8-7.7-10.1-7.7-19.9V499.6c0-20.7,12.9-45.6,28.2-54.4L277,382.6c5.6-3.2,10.5-3.8,14.2-1.7
							c4.9,2.8,7.7,10.1,7.7,19.9v100.6c0,20.7-12.9,45.6-28.2,54.5l-108.4,62.6C159,620.4,155.9,621.4,153.1,621.4z M286.3,383.1
							c-2.1,0-4.7,0.9-7.5,2.5l-108.4,62.6c-14.3,8.3-26.5,31.9-26.5,51.5v100.6c0,8.3,2.3,14.8,6,16.9c3.3,1.9,7.6,0.1,10.8-1.7
							L269,552.9c14.4-8.3,26.5-31.9,26.5-51.5V400.9c0-8.3-2.3-14.8-6-16.9C288.6,383.4,287.5,383.1,286.3,383.1z"/>
					</g>
				</g>
				<g id="XMLID_3569_">
					<g id="XMLID_3571_">
						<path id="XMLID_3583_" class="st3" d="M162,641.9c-4.3,0-8.4-1.1-12.1-3.2c-9.4-5.5-14.9-17.2-14.9-32.3V505.8
							c0-26.1,15.5-55.4,35.4-66.9l108.4-62.6c10.1-5.9,20.3-6.4,28.6-1.7c9.4,5.5,14.9,17.2,14.9,32.3v100.6
							c0,26-15.5,55.4-35.4,66.9L178.5,637C172.9,640.3,167.3,641.9,162,641.9z M295.3,387.6c-3,0-6,1.3-8.4,2.7l-108.4,62.6
							c-14.8,8.6-27.3,32.8-27.3,53v100.6c0,9.1,2.5,15.9,6.8,18.4c4,2.3,9,0.4,12.5-1.7l108.4-62.6c14.8-8.6,27.3-32.8,27.3-53V407
							c0-9.1-2.5-15.9-6.8-18.4C298.1,387.9,296.7,387.6,295.3,387.6z"/>
						<path id="XMLID_3573_" class="st3" d="M162,643.6c-4.6,0-9-1.2-12.9-3.4c-10-5.8-15.7-18.1-15.7-33.8V505.8
							c0-26.6,15.9-56.7,36.2-68.4L278,374.8c10.7-6.2,21.5-6.8,30.3-1.7c10,5.8,15.7,18.1,15.7,33.8v100.6
							c0,26.6-15.9,56.6-36.2,68.4l-108.4,62.6C173.5,641.9,167.7,643.6,162,643.6z M295.3,373.2c-5,0-10.3,1.5-15.6,4.6
							l-108.4,62.6c-19.4,11.2-34.5,39.9-34.5,65.4v100.6c0,14.5,5.1,25.7,14,30.8c7.7,4.5,17.3,3.9,26.8-1.7L286,573
							c19.4-11.2,34.5-39.9,34.5-65.4V407c0-14.5-5.1-25.7-14-30.8C303.1,374.2,299.3,373.2,295.3,373.2z M162.1,627.5
							c-1.8,0-3.5-0.4-4.9-1.3c-4.9-2.8-7.7-10.1-7.7-19.9V505.8c0-20.7,12.9-45.6,28.2-54.4L286,388.8c5.6-3.2,10.5-3.8,14.2-1.7
							c4.9,2.8,7.7,10.1,7.7,19.9v100.6c0,20.7-12.9,45.6-28.2,54.5l-108.4,62.6C168,626.5,164.8,627.5,162.1,627.5z M295.3,389.3
							c-2.1,0-4.7,0.9-7.5,2.5l-108.4,62.6c-14.3,8.3-26.5,31.9-26.5,51.5v100.6c0,8.3,2.3,14.8,6,16.9c3.3,1.9,7.6,0.1,10.7-1.7
							L278,559c14.4-8.3,26.5-31.9,26.5-51.5V407c0-8.3-2.3-14.8-6-16.9C297.5,389.6,296.5,389.3,295.3,389.3z"/>
					</g>
				</g>
			</g>
			<g id="XMLID_3501_">
				<g id="XMLID_3555_">
					<path id="XMLID_3565_" class="st1" d="M616.1,797.1l216.1-179.2L334.9,329.3c-4.7-3.1-10.9-3.1-17.8,0.9L133.3,436.2
						c-14.4,8.3-26.1,30.6-26.1,49.8c0,10.5,3.5,17.8,9,21l0,0l0.1,0c0.2,0.1,0.4,0.2,0.5,0.3L616.1,797.1z"/>
					<path id="XMLID_3563_" class="st2" d="M644.9,774.5l175.8-145.7L335.8,347.3c-4.7-3.1-10.9-3.1-17.8,0.9L134.2,454.3
						c-5.4,3.1-10.3,8.1-14.5,14.2L644.9,774.5z"/>
					<path id="XMLID_3557_" class="st3" d="M616.2,799.2l-1-0.6L116,508.9c-0.1,0-0.2-0.1-0.4-0.2c-6.5-3.8-10.1-12-10.1-22.7
						c0-19.7,12.1-42.7,26.9-51.3l183.8-106.1c7.2-4.2,14.2-4.4,19.6-0.8l499.3,289.8L616.2,799.2z M327.4,328.8
						c-2.9,0-6.1,1-9.4,2.9L134.2,437.7c-13.9,8-25.2,29.7-25.2,48.3c0,9.4,3,16.5,8.1,19.5l0.6,0.4L615.9,795l213.3-176.9
						L334,330.8C332.1,329.4,329.8,328.8,327.4,328.8z"/>
				</g>
				<g id="XMLID_3545_">
					<path id="XMLID_3553_" class="st3" d="M816.3,689.4L632.5,795.5c-14.4,8.3-26.1-0.5-26.1-19.7l0,0c0-19.2,11.7-41.5,26.1-49.8
						l183.8-106.1c14.4-8.3,26.1,0.5,26.1,19.7l0,0C842.4,658.8,830.7,681,816.3,689.4z"/>
					<path id="XMLID_3547_" class="st3" d="M622.2,800.3c-2.7,0-5.3-0.7-7.6-2c-6.3-3.6-9.9-11.8-9.9-22.6
						c0-19.7,12.1-42.7,26.9-51.3l183.8-106.1c6.8-3.9,13.5-4.4,18.8-1.4c6.3,3.6,9.9,11.8,9.9,22.6c0,19.7-12.1,42.7-26.9,51.3
						L633.4,797C629.5,799.2,625.7,800.3,622.2,800.3z M826.7,618.5c-2.9,0-6.2,1-9.5,2.9L633.4,727.5c-13.9,8-25.2,29.7-25.2,48.3
						c0,9.5,3,16.6,8.1,19.6c4.2,2.4,9.6,1.9,15.3-1.4l183.8-106.1c13.9-8,25.2-29.7,25.2-48.3c0-9.5-3-16.6-8.1-19.6
						C830.7,619,828.8,618.5,826.7,618.5z"/>
				</g>
				<g id="XMLID_3541_">
					
						<rect id="XMLID_3543_" x="364" y="311.1" transform="matrix(0.5042 -0.8636 0.8636 0.5042 -336.5864 613.1627)" class="st3" width="3.5" height="577.2"/>
				</g>
				<g id="XMLID_3537_">
					
						<rect id="XMLID_3539_" x="357.4" y="328.7" transform="matrix(0.5042 -0.8636 0.8636 0.5042 -355.082 616.2265)" class="st3" width="3.5" height="577.2"/>
				</g>
				<g id="XMLID_3533_">
					
						<rect id="XMLID_3535_" x="354.8" y="347.6" transform="matrix(0.5042 -0.8636 0.8636 0.5042 -372.6304 623.2813)" class="st3" width="3.5" height="577.2"/>
				</g>
				<g id="XMLID_3529_">
					
						<rect id="XMLID_3531_" x="559.1" y="189.5" transform="matrix(0.5006 -0.8657 0.8657 0.5006 -134.0349 724.4221)" class="st3" width="3.5" height="577.7"/>
				</g>
				<g id="XMLID_3525_">
					
						<rect id="XMLID_3527_" x="510.5" y="217.8" transform="matrix(0.5006 -0.8657 0.8657 0.5006 -182.8485 696.4604)" class="st3" width="3.5" height="577.7"/>
				</g>
				<g id="XMLID_3521_">
					
						<rect id="XMLID_3523_" x="414.4" y="273.2" transform="matrix(0.5006 -0.8657 0.8657 0.5006 -278.7772 640.909)" class="st3" width="3.5" height="577.7"/>
				</g>
				<g id="XMLID_3517_">
					
						<rect id="XMLID_3519_" x="635.3" y="619.2" transform="matrix(0.5006 -0.8657 0.8657 0.5006 -263.0988 886.7418)" class="st3" width="3.5" height="104.5"/>
				</g>
				<g id="XMLID_3513_">
					
						<rect id="XMLID_3515_" x="572" y="619.6" transform="matrix(0.5005 -0.8657 0.8657 0.5005 -262.7632 813.6697)" class="st3" width="3.5" height="29.8"/>
				</g>
				<g id="XMLID_3509_">
					
						<rect id="XMLID_3511_" x="220.1" y="421.5" transform="matrix(0.5007 -0.8656 0.8656 0.5007 -261.0399 406.4337)" class="st3" width="3.5" height="15.9"/>
				</g>
				<g id="XMLID_3505_">
					
						<rect id="XMLID_3507_" x="195.1" y="399.9" transform="matrix(0.5006 -0.8657 0.8657 0.5006 -260.7838 377.5335)" class="st3" width="3.5" height="29.8"/>
				</g>
				<path id="XMLID_3503_" class="st1" d="M841.9,654.8c1.4-5.1,2.2-10.3,2.2-15.3c0-4.5-0.7-8.6-1.9-12c-1.3,0.3-2.4,0.6-3.3,1
					c1.1,3.1,1.7,6.8,1.7,11c0,4-0.5,8.1-1.5,12.3C840.1,653,841.1,654,841.9,654.8z"/>
			</g>
			<g id="XMLID_3457_">
				<g id="XMLID_3481_">
					<g id="XMLID_3483_">
						<path id="XMLID_3495_" class="st1" d="M662.9,931.1c-4.3,0-8.4-1.1-12.1-3.2c-9.4-5.5-14.9-17.2-14.9-32.3V794.9
							c0-26.1,15.5-55.4,35.4-66.9l108.4-62.6c10.1-5.9,20.3-6.4,28.6-1.7c9.4,5.5,14.9,17.2,14.9,32.3v100.6
							c0,26-15.5,55.4-35.4,66.9l-108.4,62.6C673.8,929.4,668.2,931.1,662.9,931.1z M796.2,676.7c-3,0-6,1.3-8.4,2.7L679.4,742
							c-14.8,8.6-27.3,32.8-27.3,53v100.6c0,9.1,2.5,15.9,6.8,18.4c4,2.3,9,0.4,12.5-1.7l108.4-62.6c14.8-8.6,27.3-32.8,27.3-53
							V696.2c0-9.1-2.5-15.9-6.8-18.4C799,677,797.6,676.7,796.2,676.7z"/>
						<path id="XMLID_3485_" class="st3" d="M662.9,932.8c-4.6,0-9-1.2-12.9-3.4c-10-5.8-15.7-18.1-15.7-33.8V795
							c0-26.6,15.9-56.7,36.2-68.4L778.9,664c10.7-6.2,21.5-6.8,30.3-1.7c10,5.8,15.7,18.1,15.7,33.8v100.6
							c0,26.6-15.9,56.6-36.2,68.4l-108.4,62.6C674.5,931.1,668.6,932.8,662.9,932.8z M796.2,662.4c-5,0-10.3,1.5-15.6,4.6
							l-108.4,62.6c-19.4,11.2-34.5,39.9-34.5,65.4v100.6c0,14.5,5.1,25.7,14,30.8c7.7,4.4,17.3,3.9,26.8-1.7l108.4-62.6
							c19.4-11.2,34.5-39.9,34.5-65.4V696.2c0-14.5-5.1-25.7-14-30.8C804,663.4,800.2,662.4,796.2,662.4z M663,916.7
							c-1.8,0-3.5-0.4-4.9-1.3c-4.9-2.8-7.7-10.1-7.7-19.9V795c0-20.7,12.9-45.6,28.2-54.5l108.4-62.6c5.6-3.2,10.5-3.8,14.2-1.7
							c4.9,2.8,7.7,10.1,7.7,19.9v100.6c0,20.7-12.9,45.6-28.2,54.4l-108.4,62.6C668.9,915.7,665.8,916.7,663,916.7z M796.2,678.5
							c-2.1,0-4.7,0.8-7.5,2.5l-108.4,62.6c-14.3,8.3-26.5,31.9-26.5,51.5v100.6c0,8.3,2.3,14.8,6,16.9c3.3,1.9,7.6,0.1,10.7-1.7
							l108.4-62.6c14.4-8.3,26.5-31.9,26.5-51.5V696.2c0-8.3-2.3-14.8-6-16.9C798.5,678.7,797.4,678.5,796.2,678.5z"/>
					</g>
				</g>
				<g id="XMLID_3461_">
					<g id="XMLID_3463_">
						<path id="XMLID_3475_" class="st3" d="M671.9,937.2c-4.3,0-8.4-1.1-12.1-3.2c-9.4-5.5-14.9-17.2-14.9-32.3V801.1
							c0-26.1,15.5-55.4,35.4-66.9l108.4-62.6c10.1-5.9,20.3-6.4,28.6-1.7c9.4,5.5,14.9,17.2,14.9,32.3v100.6
							c0,26-15.5,55.4-35.4,66.9l-108.4,62.6C682.8,935.6,677.2,937.2,671.9,937.2z M805.2,682.9c-3,0-6,1.3-8.4,2.7l-108.4,62.6
							c-14.8,8.6-27.3,32.8-27.3,53v100.6c0,9.1,2.5,15.9,6.8,18.4c4,2.3,9,0.4,12.5-1.7l108.4-62.6c14.8-8.6,27.3-32.8,27.3-53
							V702.3c0-9.1-2.5-15.9-6.8-18.4C808,683.2,806.6,682.9,805.2,682.9z"/>
						<path id="XMLID_3465_" class="st3" d="M671.9,938.9c-4.6,0-9-1.2-12.9-3.4c-10-5.8-15.7-18.1-15.7-33.8V801.1
							c0-26.6,15.9-56.6,36.2-68.4l108.4-62.6c10.7-6.2,21.5-6.8,30.3-1.7c10,5.8,15.7,18.1,15.7,33.8v100.6
							c0,26.6-15.9,56.6-36.2,68.4l-108.4,62.6C683.4,937.2,677.6,938.9,671.9,938.9z M805.2,668.5c-5,0-10.3,1.5-15.6,4.6
							l-108.4,62.6c-19.4,11.2-34.5,39.9-34.5,65.4v100.6c0,14.5,5.1,25.7,14,30.8c7.7,4.4,17.3,3.9,26.8-1.7l108.4-62.6
							c19.4-11.2,34.5-39.9,34.5-65.4V702.3c0-14.5-5.1-25.7-14-30.8C813,669.5,809.2,668.5,805.2,668.5z M672,922.8
							c-1.8,0-3.5-0.4-4.9-1.3c-4.9-2.8-7.7-10.1-7.7-19.9V801.1c0-20.7,12.9-45.6,28.2-54.4l108.4-62.6c5.6-3.2,10.5-3.8,14.2-1.7
							c4.9,2.8,7.7,10.1,7.7,19.9v100.6c0,20.7-12.9,45.6-28.2,54.4l-108.4,62.6C677.9,921.9,674.7,922.8,672,922.8z M805.2,684.6
							c-2.1,0-4.7,0.8-7.5,2.5l-108.4,62.6c-14.3,8.3-26.5,31.9-26.5,51.5v100.6c0,8.3,2.3,14.8,6,16.9c3.3,1.9,7.6,0.1,10.7-1.7
							l108.4-62.6c14.4-8.3,26.5-31.9,26.5-51.5V702.3c0-8.3-2.3-14.8-6-16.9C807.4,684.9,806.4,684.6,805.2,684.6z"/>
					</g>
				</g>
				<path id="XMLID_3459_" class="st1" d="M688.4,749.6L796.8,687c1.3-0.7,2.5-1.3,3.6-1.7l3.4-4.2c-2.6,0.1-5.6,1.1-8.7,2.9
					l-108.4,62.6c-8.4,4.9-16.1,14.7-21.4,25.9l5.3-2.9C675.4,760.9,681.6,753.5,688.4,749.6z"/>
			</g>
		</g>
		<g id="XMLID_3317_">
			<g id="XMLID_3363_">
				<g id="XMLID_3365_">
					<g id="XMLID_3367_">
						<g id="XMLID_3443_">
							<g id="XMLID_3445_">
								<g id="XMLID_3447_">
									<g id="XMLID_3449_">
										<g id="XMLID_3451_">
											<g id="XMLID_11205_">
												<path id="XMLID_3453_" class="st1" d="M281.7,48.5l34-17.7c0.3-0.2,0.6-0.3,0.9-0.5l0.9-0.5l0.1,0
													c7.3-3.4,17-2.5,27.6,3.7l107.4,61.1c22.8,13.2,41.3,45.2,41.3,71.6v81.2c0,13-4.5,22.2-11.9,26.6l0,0l-0.1,0.1
													c-0.1,0.1-0.2,0.1-0.3,0.2l-44.8,23c-0.3,1.9-0.7,2.9-1.9,3.5l-0.4,0.3l-0.1,0.1c-5.3,2.9-7.2,3.9-7.2,3.9l-25.6,14.3
													c0,0-19.4-61.9-19.4-62.8s14.2-17.8,14.2-17.8l28.4,31.2l-22.1-33.5c-6.9-10.5-15.5-19-24.4-24.1l-51.7-29.9
													c-22.8-13.2-9.1-25.7-9.1-52.1V70.1L281.7,48.5z"/>
											</g>
										</g>
									</g>
								</g>
							</g>
						</g>
						<g id="XMLID_3417_">
							<g id="XMLID_3431_">
								<g id="XMLID_3433_">
									<g id="XMLID_3435_">
										<g id="XMLID_3437_">
											<g id="XMLID_3439_">
												<g id="XMLID_11199_">
													<polygon id="XMLID_3441_" class="st4" points="289.7,51.1 285.6,48.6 286.2,48.4 													"/>
												</g>
											</g>
										</g>
									</g>
								</g>
							</g>
							<g id="XMLID_3419_">
								<g id="XMLID_3421_">
									<g id="XMLID_3423_">
										<g id="XMLID_3425_">
											<g id="XMLID_3427_">
												<g id="XMLID_11193_">
													<path id="XMLID_3429_" class="st5" d="M319.4,130.4c0,25.7-14.1,37.6,8.1,50.4l51.7,29.9c9.1,5.3,18,14.1,25.1,24.7
														l22.1,33.5l-3,2.3l-26.9-29.6c-5.4,6.5-10.9,13.2-12.2,15.1c1.4,4.9,11.3,37,18.5,59.8l0.6-0.3v-29l6.3-4.9l18.8,10.5
														l8.5,2.2l17.9-9.2l5.9-12.5l0.9-87.8l-3.8-19.6l31.3-18.4c-5.9-20.7-20.5-41.4-37.6-51.3L344.3,35.2
														c-9.6-5.6-18.8-6.8-25.9-3.6l-1.1,0.5c-0.2,0.1-0.4,0.2-0.8,0.4l-30.4,15.8l-3.3-2.6l31.9-16.6c0.3-0.2,0.6-0.3,1-0.5
														l2.1-1.1l0.1,0.1c8-3.2,18-1.7,28.3,4.2L453.6,93c23.3,13.5,42.3,46.3,42.3,73.3v81.2c0,12.8-4.2,22.6-12,27.7l-1,0.7
														l-0.2,0.1l-0.1,0.1l-0.2,0.1l-43.8,22.5c-0.3,1.6-0.9,3.1-2.6,3.8l-1.2,0.7c-4.1,2.2-5.8,3.2-6.6,3.5l0,0l-27,15.1
														l-1.3-1.9c-19.5-62.2-19.5-63-19.5-63.4c0-0.8,0-1.7,14.6-19l1.4-1.7l13.4,14.7l-8.6-13c-6.7-10.2-15.2-18.6-23.8-23.5
														l-51.7-29.9c-23.3-13.5-10-26.8-10-53.8V71.2l-25.9-20.1l29.7,18V130.4z"/>
												</g>
											</g>
										</g>
									</g>
								</g>
							</g>
						</g>
						<g id="XMLID_3405_">
							<g id="XMLID_3407_">
								<g id="XMLID_3409_">
									<g id="XMLID_3411_">
										<g id="XMLID_3413_">
											<g id="XMLID_11186_">
												<path id="XMLID_3415_" class="st2" d="M312.1,50.7l107.4,61.1c22.8,13.2,41.3,45.2,41.3,71.6v81.2
													c0,26.4-18.5,37-41.3,23.9l-6.9-4c-5.3-3.1-9.6-0.6-9.6,5.6v24.9c0,7.3-7.3,7-12.2-0.3L356,261.9
													c-6.9-10.5-15.5-19-24.4-24.1l-19.5-10.4c-22.8-13.2-41.3-45.2-41.3-71.6V74.5C270.8,48.2,289.3,37.5,312.1,50.7z"/>
											</g>
										</g>
									</g>
								</g>
							</g>
						</g>
						<g id="XMLID_3397_">
							<g id="XMLID_3399_">
								<g id="XMLID_3401_">
									<g id="XMLID_11180_">
										<path id="XMLID_3403_" class="st1" d="M418.8,110.9L311.5,49.8c-5.3-3.1-10.4-4.8-15.1-5.4c-8.1,4-13.2,13.5-13.2,27.3
											v81.2c0,26.4,18.5,58.4,41.3,71.6l19.5,10.4c8.9,5.1,17.5,13.7,24.4,24.1l33.9,51.5v-21.3c0-6.1,4.3-8.6,9.6-5.6l3.6,2.1
											c0,0,6.1,5,11,7.8h12.7c5.3,3.1,3.2-3,7.9-2.4c8.1-4,13.2-13.5,13.2-27.3v-81.2C460.2,156.2,441.7,124.1,418.8,110.9z"/>
									</g>
								</g>
							</g>
						</g>
						<g id="XMLID_3385_">
							<g id="XMLID_3387_">
								<g id="XMLID_3389_">
									<g id="XMLID_3391_">
										<g id="XMLID_3393_">
											<g id="XMLID_11176_">
												<path id="XMLID_3395_" class="st2" d="M311.1,61.9c-10.1-5.8-19.3-7-26.5-4.2l32-16.7l0.1,0c7.3-3.4,17-2.5,27.6,3.7
													l107.4,61.1c8.1,4.7,15.6,11.7,21.9,20l-32.2,18.4c-6.6-8.8-14.4-16.3-22.9-21.2L311.1,61.9z"/>
											</g>
										</g>
									</g>
								</g>
							</g>
						</g>
						<g id="XMLID_3369_">
							<g id="XMLID_3371_">
								<g id="XMLID_3373_">
									<g id="XMLID_3375_">
										<g id="XMLID_3377_">
											<g id="XMLID_11168_">
												<path id="XMLID_3379_" class="st5" d="M389.2,315.8L354.4,263c-6.7-10.2-15.2-18.6-23.8-23.5L311.1,229
													c-23.3-13.5-42.3-46.3-42.3-73.3V74.5c0-13.5,4.6-23.6,13.1-28.4c8.4-4.9,19.5-3.8,31.1,2.9l107.4,61.1
													c23.3,13.5,42.3,46.3,42.3,73.3v81.2c0,13.5-4.6,23.6-13.1,28.4c-8.4,4.9-19.5,3.8-31.1-2.9l-6.9-4
													c-1.9-1.1-3.7-1.4-4.9-0.7c-1.2,0.7-1.9,2.4-1.9,4.6v24.9c0,3.6-1.6,6.2-4.3,7c-0.6,0.2-1.1,0.3-1.7,0.3
													C395.6,322.3,391.9,319.9,389.2,315.8z M413.6,282.9l6.9,4c10.4,6,20.1,7,27.3,2.9c7.2-4.2,11.1-13.1,11.1-25.1v-81.2
													c0-25.7-18.1-57.1-40.4-69.9L311.1,52.3c-10.4-6-20.1-7-27.3-2.9c-7.2,4.1-11.1,13.1-11.1,25.1v81.2
													c0,25.7,18.1,57.1,40.4,69.9l19.5,10.4c9.1,5.3,18,14.1,25.1,24.7l34.8,52.8c2.4,3.7,5.5,5.2,7.1,4.7
													c1.3-0.4,1.5-2.3,1.5-3.3v-24.9c0-3.7,1.3-6.5,3.8-7.9c1-0.6,2.2-0.9,3.5-0.9C409.9,281.3,411.7,281.8,413.6,282.9z"/>
											</g>
										</g>
									</g>
								</g>
							</g>
						</g>
					</g>
				</g>
			</g>
			<g id="XMLID_3319_">
				<g id="XMLID_3351_">
					<path id="XMLID_3361_" class="st2" d="M337.6,166.4c0,11.2-7.9,15.7-17.6,10.1c-9.7-5.6-17.6-19.2-17.6-30.4
						c0-11.2,7.9-15.7,17.6-10.1C329.7,141.6,337.6,155.2,337.6,166.4z"/>
					<path id="XMLID_3352_" class="st3" d="M324.8,171.2c-2.7,0-5.7-0.9-8.7-2.6c-10.2-5.9-18.4-20.2-18.4-31.9
						c0-6.1,2.1-10.6,6-12.9c3.9-2.2,8.9-1.8,14.1,1.2c10.2,5.9,18.4,20.2,18.4,31.9c0,6.1-2.1,10.6-6,12.9
						C328.6,170.7,326.8,171.2,324.8,171.2z M309.1,125.8c-1.4,0-2.6,0.3-3.7,0.9c-2.8,1.6-4.3,5.1-4.3,9.9
						c0,10.6,7.5,23.6,16.7,28.9c4.1,2.4,7.9,2.8,10.7,1.2c2.8-1.6,4.3-5.1,4.3-9.9c0-10.6-7.5-23.6-16.7-28.9
						C313.6,126.5,311.2,125.8,309.1,125.8z"/>
				</g>
				<g id="XMLID_3335_">
					
						<ellipse id="XMLID_3349_" transform="matrix(0.866 -0.5 0.5 0.866 -42.3446 207.3711)" class="st2" cx="365.8" cy="182.7" rx="14.3" ry="24.8"/>
					<path id="XMLID_3337_" class="st3" d="M370.6,197.6c-2.7,0-5.7-0.9-8.7-2.6c-10.2-5.9-18.4-20.2-18.4-31.9
						c0-6.1,2.1-10.6,6-12.9c3.9-2.2,8.9-1.8,14.1,1.2c10.2,5.9,18.4,20.2,18.4,31.9c0,6.1-2.1,10.6-6,12.9
						C374.4,197.1,372.6,197.6,370.6,197.6z M354.9,152.2c-1.4,0-2.6,0.3-3.7,0.9c-2.8,1.6-4.3,5.1-4.3,9.9
						c0,10.6,7.5,23.6,16.7,28.9c4.1,2.4,7.9,2.8,10.7,1.2c2.8-1.6,4.3-5.1,4.3-9.9c0-10.6-7.5-23.6-16.7-28.9
						C359.4,153,357,152.2,354.9,152.2z"/>
				</g>
				<g id="XMLID_3321_">
					<path id="XMLID_3333_" class="st2" d="M429.2,219.3c0,11.2-7.9,15.7-17.6,10.1c-9.7-5.6-17.6-19.2-17.6-30.4
						c0-11.2,7.9-15.7,17.6-10.1C421.3,194.5,429.2,208.1,429.2,219.3z"/>
					<path id="XMLID_3323_" class="st3" d="M416.4,224c-2.7,0-5.7-0.9-8.7-2.6c-10.2-5.9-18.4-20.2-18.4-31.9c0-6.1,2.1-10.6,6-12.9
						c3.9-2.2,8.9-1.8,14.1,1.2c10.2,5.9,18.4,20.2,18.4,31.9c0,6.1-2.1,10.6-6,12.9C420.2,223.6,418.4,224,416.4,224z M400.7,178.7
						c-1.4,0-2.6,0.3-3.7,0.9c-2.8,1.6-4.3,5.1-4.3,9.9c0,10.6,7.5,23.6,16.7,28.9c4.1,2.4,7.9,2.8,10.7,1.2
						c2.8-1.6,4.3-5.1,4.3-9.9c0-10.6-7.5-23.6-16.7-28.9C405.2,179.4,402.8,178.7,400.7,178.7z"/>
				</g>
			</g>
		</g>
		<g id="XMLID_3289_">
			<g id="XMLID_3303_">
				<polygon id="XMLID_3315_" class="st3" points="336.1,499.8 301.4,479.8 353.8,449.6 388.5,469.6 				"/>
				<path id="XMLID_3305_" class="st3" d="M336.1,501.8l-38.2-22l55.8-32.2l38.2,22L336.1,501.8z M304.9,479.8l31.3,18l48.9-28.2
					l-31.3-18L304.9,479.8z"/>
			</g>
			<g id="XMLID_3291_">
				<polygon id="XMLID_3301_" class="st2" points="398.5,522.1 329,482 433.8,421.6 503.2,461.6 				"/>
				<polygon id="XMLID_3299_" class="st1" points="337.9,486.7 398.5,521.6 494.3,466.3 433.8,431.4 				"/>
				<path id="XMLID_3293_" class="st3" d="M398.5,524.1L325.6,482l108.2-62.5l72.9,42.1L398.5,524.1z M332.5,482l66,38.1l101.3-58.5
					l-66-38.1L332.5,482z"/>
			</g>
		</g>
		<g id="XMLID_2401_">
			<g id="XMLID_3279_">
				<path id="XMLID_3287_" class="st3" d="M548,262.2c0,0-32.9,3-45.4,33.2c-10.2,24.8-22.8,85.3-32,134.4
					c-0.8,4.5-1.7,8.9-2.4,13.2c-6,33-10.1,58-10.1,58l50.4-78.4c0,0-4.4-70.9,4.6-99C521.9,295.4,548,262.2,548,262.2z"/>
				<path id="XMLID_3281_" class="st3" d="M455,508.9l1.3-8.2c0-0.2,4.1-25.4,10.1-58.1c0.8-4.3,1.6-8.7,2.4-13.2
					c8.9-47.6,21.7-109.6,32.1-134.7c12.7-30.8,46.5-34.2,46.8-34.2l4-0.4l-2.5,3.1c-0.3,0.3-25.9,33.3-34.7,60.8
					c-8.7,27.5-4.5,97.7-4.5,98.4l0,0.6l-0.3,0.5L455,508.9z M543.9,264.6c-9.1,2-30.5,8.9-39.8,31.4c-10.3,24.9-23,86.6-31.9,134
					c-0.8,4.5-1.7,8.9-2.4,13.2c-3.9,21.5-7,39.7-8.7,49.8l45.6-70.9c-0.4-7.2-3.9-72,4.7-99.1C518.7,299.9,537,273.9,543.9,264.6z"
					/>
			</g>
			<g id="XMLID_3233_">
				<g id="XMLID_3269_">
					<path id="XMLID_3277_" class="st3" d="M348.3,798.4l-53.7,28.7c-4.1,2.2-9,2.8-13.3,1.1c-2.6-1-5.1-2.8-6.8-6.1
						c-4.7-9.1,4.7-22.1,18.8-34.5c14.1-12.4,27.2-28.2,27.2-28.2s18.1-22.1,37.9-14.8c11.6,4.3,14.8,17.1,15.4,26.8
						c0.5,7.1-3.1,13.9-9.3,17.5L348.3,798.4z"/>
					<path id="XMLID_3271_" class="st3" d="M286.5,830.9c-2,0-4-0.4-5.8-1.1c-3.4-1.3-6-3.7-7.7-6.9c-5.8-11.2,7.2-26.1,19.2-36.6
						c13.8-12.2,26.8-27.8,27-28c0.8-0.9,19.1-23,39.8-15.3c12.4,4.6,15.9,18,16.5,28.4c0.5,7.9-3.4,15.2-10.2,19.1l-16.2,9.3
						l-53.7,28.7C292.5,830.1,289.5,830.9,286.5,830.9z M350.1,745c-15.3,0-28.1,15.4-28.3,15.6c-0.1,0.2-13.3,16-27.3,28.4
						c-15.6,13.7-22.1,25.2-18.4,32.4c1.3,2.5,3.2,4.2,5.9,5.3c3.6,1.4,7.9,1,11.8-1l53.7-28.7l16.2-9.3c5.6-3.2,8.9-9.3,8.4-15.9
						c-0.6-9.4-3.6-21.4-14.3-25.3C355.1,745.4,352.6,745,350.1,745z"/>
				</g>
				<g id="XMLID_3259_">
					<path id="XMLID_3267_" class="st1" d="M331.8,759.8c-3.6-1.3-7.1-1.7-10.4-1.4c-0.6,0.7-0.9,1.1-0.9,1.1s-13.1,15.8-27.2,28.2
						c-14.1,12.4-23.5,25.5-18.8,34.5c1.7,3.2,4.2,5.1,6.8,6.1c4.3,1.7,9.2,1.1,13.3-1.1l45.3-24.2c5-3.8,7.8-9.8,7.4-16.2
						C346.6,776.9,343.4,764.1,331.8,759.8z"/>
					<path id="XMLID_3261_" class="st3" d="M286.5,830.9c-2,0-4-0.4-5.8-1.1c-3.4-1.3-6-3.7-7.7-6.9c-5.8-11.2,7.2-26.1,19.2-36.6
						c13.8-12.2,26.8-27.8,27-28l0,0c0,0,0.4-0.4,1-1.1l0.5-0.5l0.7-0.1c3.9-0.3,7.6,0.2,11.2,1.5l0,0c12.4,4.6,15.9,18,16.6,28.4
						c0.5,6.9-2.6,13.6-8.1,17.7l-45.5,24.4C292.5,830.1,289.5,830.9,286.5,830.9z M322.2,760.1c-0.3,0.3-0.4,0.5-0.4,0.5
						c-0.1,0.2-13.3,16-27.3,28.4c-15.6,13.7-22.1,25.2-18.4,32.4c1.3,2.5,3.2,4.2,5.9,5.3c3.6,1.4,7.9,1,11.8-1l45.3-24.2
						c4.3-3.3,6.8-8.8,6.5-14.6c-0.6-9.4-3.6-21.4-14.3-25.3C328.3,760.4,325.3,759.9,322.2,760.1z"/>
				</g>
				<g id="XMLID_3247_">
					<path id="XMLID_3257_" class="st1" d="M336.2,743.2c0,0-10.4,14.5-12.7,23.3c-1.4,5.6-0.2,19.3,24.4,5.7
						c31.8-17.7,13.4-41.9,13.4-41.9L336.2,743.2z"/>
					<path id="XMLID_3255_" class="st2" d="M334.2,768.4c-0.7,2.6-0.7,6.8,1.8,9.4c3.5-0.6,7.9-2.3,13.8-5.5
						c23-12.8,19.8-29,16.2-37l-19.1,9.8C346.8,745.2,336.4,759.6,334.2,768.4z"/>
					<path id="XMLID_3249_" class="st3" d="M331.1,779.8c-2.5,0-4.6-0.6-6.2-1.9c-4-3.1-3.8-8.9-3-11.8c2.3-9,12.5-23.3,12.9-23.9
						l0.2-0.3l26.8-13.8l0.9,1.1c0.3,0.4,7.7,10.3,5.1,22.3c-1.8,8.7-8.2,16.1-19.1,22.1C341.5,777.8,335.6,779.8,331.1,779.8z
						 M337.4,744.6c-1.5,2.2-10.2,14.7-12.1,22.4c-0.5,2-0.8,6.2,1.8,8.2c1.9,1.5,7,2.8,20.1-4.5c9.9-5.5,15.8-12.2,17.4-19.8
						c1.7-8.3-2-15.6-3.7-18.3L337.4,744.6z"/>
				</g>
			</g>
			<g id="XMLID_3029_">
				<g id="XMLID_3053_">
					<path id="XMLID_3215_" class="st3" d="M229.3,655.1l-54.1-27.9c-4.1-2.1-7.4-5.8-8.5-10.3c-0.6-2.7-0.6-5.8,1.2-9
						c4.8-9,20.9-8.7,39.1-4.1c18.2,4.6,38.6,6.4,38.6,6.4s28.5,2.4,33.6,22.8c3,12-5.7,21.8-13.4,27.9c-5.6,4.4-13.2,5.4-19.7,2.3
						L229.3,655.1z"/>
					<path id="XMLID_3055_" class="st3" d="M254.2,666.7c-3,0-6-0.7-8.8-2l-16.9-8.1l-54.1-27.9c-4.8-2.5-8.2-6.7-9.3-11.4
						c-0.8-3.6-0.4-7,1.3-10.2c5.9-11.1,25.6-8.8,41-5c17.9,4.5,38.1,6.3,38.3,6.4c1.2,0.1,29.8,2.7,35.2,24.1
						c3.2,12.9-5.8,23.3-14,29.7C263.2,665.2,258.7,666.7,254.2,666.7z M230.1,653.5l16.8,8.1c5.9,2.8,12.7,2,17.9-2.1
						c7.4-5.8,15.5-15.1,12.8-26.2c-4.8-19.1-31.8-21.5-32.1-21.5c-0.2,0-20.7-1.9-38.9-6.4c-20.1-5-33.3-3.9-37.1,3.3
						c-1.3,2.4-1.6,5.1-1,7.8c0.9,3.8,3.6,7.1,7.6,9.1L230.1,653.5z"/>
				</g>
				<g id="XMLID_3043_">
					<path id="XMLID_3051_" class="st1" d="M252.4,621.7c-1.2-4.8-3.7-8.6-6.9-11.6c-2.8-0.3-21.4-2.2-38.2-6.4
						c-18.2-4.6-34.3-4.9-39.1,4.1c-1.7,3.2-1.8,6.3-1.2,9c1,4.5,4.3,8.2,8.5,10.3l51.5,26.6c4.3,0.1,8.5-1.3,12-4.1
						C246.8,643.6,255.5,633.7,252.4,621.7z"/>
					<path id="XMLID_3045_" class="st3" d="M227.4,655.5c-0.1,0-0.2,0-0.3,0l-0.4,0l-51.9-26.8c-4.8-2.5-8.2-6.7-9.3-11.4
						c-0.8-3.6-0.4-7,1.3-10.2c5.9-11.1,25.6-8.8,41-5c16.5,4.1,34.5,6,37.9,6.3l0.6,0.1l0.4,0.4c3.7,3.6,6.2,7.8,7.4,12.5l0,0
						c3.2,12.9-5.8,23.3-14,29.7C236.5,653.9,232,655.5,227.4,655.5z M185.9,602.3c-8.3,0-13.8,2.1-16.1,6.4c-1.3,2.4-1.6,5.1-1,7.8
						c0.9,3.8,3.6,7.1,7.6,9.1l51.1,26.4c3.8,0,7.5-1.3,10.5-3.7c7.4-5.8,15.5-15.1,12.8-26.2l0,0c-1-3.9-3-7.4-6-10.4
						c-4.7-0.5-21.9-2.4-37.8-6.3C198.7,603.3,191.6,602.3,185.9,602.3z"/>
				</g>
				<g id="XMLID_3031_">
					<path id="XMLID_3041_" class="st1" d="M267.9,610.5c0,0-17.8-0.4-26.4,2.8c-5.4,2-16,10.8,9.1,23.3
						c32.6,16.2,42.1-12.7,42.1-12.7L267.9,610.5z"/>
					<path id="XMLID_3039_" class="st2" d="M236.9,628c2.3,2.9,6.6,6.2,13.8,9.8c23.1,11.5,34.6,0.3,39.4-7.2l-20.4-11
						c0,0-17.8-0.4-26.4,2.8C241.1,623.2,238.1,625.2,236.9,628z"/>
					<path id="XMLID_3033_" class="st3" d="M268.9,643.3c-5.8,0-12.1-1.7-19-5.1c-11.6-5.8-17.3-11.6-17-17.3c0.3-5,5.2-8.1,8-9.2
						c8.8-3.2,26.3-2.9,27-2.9l0.4,0l26.5,14.3l-0.5,1.4c-0.2,0.5-4.1,12.1-15.5,16.9C275.8,642.7,272.5,643.3,268.9,643.3z
						 M266.3,612.3c-4.4,0-17.5,0.2-24.2,2.7c-1.9,0.7-5.6,2.9-5.8,6.1c-0.1,2.4,1.7,7.3,15.1,14c10.2,5,19,6.1,26.2,3.1
						c7.8-3.2,11.7-10.5,13-13.5l-23.2-12.5C267.2,612.3,266.8,612.3,266.3,612.3z"/>
				</g>
			</g>
			<g id="XMLID_3003_">
				<path id="XMLID_3027_" class="st3" d="M343,577.3l-15.8,164.8c-0.5,4.2,1.5,8.3,5.2,10.5c7.6,4.5,21.8,9.5,39.2-1.4
					c1.2-0.7,1.9-2,2.1-3.4c0.9-9.3,5.1-46.5,15.8-67.7c12-23.7,22.6-45,21.2-75.9c-0.1-1.4,0.8-2.7,2.2-3.1
					c10.9-3,84.6-9.7,116.4-25.6c36.2-18.1-59-64.8-59-64.8l-62.7,7.1c0,0-29.2,27.8-32.7,31.7C371.4,553.3,343,577.3,343,577.3z"/>
				<path id="XMLID_3021_" class="st3" d="M350.6,759.4c-8.3,0-14.9-2.9-19.1-5.4c-4.2-2.5-6.5-7.3-6-12.1l15.8-165.5l0.5-0.5
					c9.8-8.3,29-24.7,31.7-27.7c3.5-3.9,31.6-30.6,32.8-31.8l0.4-0.4l63.7-7.2l0.5,0.2c2.8,1.4,68.1,33.6,68.2,55.7
					c0,5-3.1,9.1-9.2,12.2c-23.7,11.9-69.8,18.6-97.4,22.6c-9.3,1.3-16.6,2.4-19.4,3.2c-0.6,0.2-1,0.7-0.9,1.4
					c1.5,31.6-9.6,53.5-21.4,76.8c-10.7,21.2-14.9,59.6-15.7,67.1c-0.2,1.9-1.3,3.7-2.9,4.7C364.5,757.7,357.1,759.4,350.6,759.4z
					 M344.7,578.1L329,742.2c-0.4,3.6,1.3,7,4.3,8.8c8.2,4.9,21.4,8.7,37.4-1.3c0.7-0.5,1.2-1.2,1.3-2.1c1-10.7,5.3-47.1,16-68.3
					c11.5-22.8,22.4-44.4,21-75.1c-0.1-2.3,1.3-4.3,3.5-4.9c3-0.8,10-1.8,19.8-3.3c27.3-4,73.1-10.6,96.3-22.2
					c4.9-2.5,7.3-5.4,7.3-9c-0.1-16.4-47.1-43.2-65.8-52.4l-61.6,6.9c-3.6,3.4-29,27.6-32.2,31.2
					C372.9,554.2,348.7,574.7,344.7,578.1z"/>
			</g>
			<g id="XMLID_2993_">
				<path id="XMLID_3001_" class="st3" d="M276.3,641c4.8,1.6,10,0.1,13.1-3.9c6-7.5,18.9-20.5,42.7-30.8c35.5-15.4,76.4-59,76.4-59
					s28.9-2.7,67.8,20.8c38.9,23.5,116.2,56.8,159.1,15.2L587,505l-34.2-3.4l-15.4,4c0,0-106.6-47.4-140.8-34
					C363,484.9,308.3,557.3,256,603c-2.1,1.8-3.4,4.4-3.4,7.2C252.5,618.1,255.1,634,276.3,641z"/>
				<path id="XMLID_2995_" class="st3" d="M280.1,643.3c-1.4,0-2.9-0.2-4.3-0.7l0,0c-22.8-7.5-25-25.2-24.9-32.4
					c0.1-3.2,1.5-6.3,4-8.5c20.6-18,41.4-40,61.6-61.3c30.2-32,58.8-62.2,79.5-70.3c33.6-13.1,132.3,29.7,141.6,33.8l15.1-3.9l0.3,0
					l35,3.4l49.7,80.1l-1,1c-49.8,48.3-143-4-161.2-15c-34.8-21-61.7-20.8-66.1-20.6c-4.7,4.9-43.1,44.4-76.5,58.9
					c-23.8,10.3-36.6,23.4-42.1,30.3C288.2,641.5,284.2,643.3,280.1,643.3z M276.9,639.3c4.1,1.3,8.6,0,11.2-3.3
					c5.7-7.1,18.9-20.7,43.4-31.3c34.8-15.1,75.4-58.2,75.8-58.6l0.4-0.5l0.7-0.1c1.2-0.1,29.9-2.5,68.8,21
					c17.7,10.7,107.7,61.2,156,16.4L586,506.7l-33-3.2l-15.7,4.1l-0.6-0.2c-1.1-0.5-106.3-47-139.5-34
					c-19.9,7.8-48.2,37.8-78.2,69.5c-20.2,21.4-41.1,43.4-61.8,61.6c-1.8,1.6-2.8,3.7-2.8,5.9C254.2,618.3,257,632.8,276.9,639.3
					L276.9,639.3z"/>
			</g>
			<g id="XMLID_2983_">
				<path id="XMLID_2991_" class="st2" d="M552.3,263.7c0,0-33.5,36.2-34.9,82.7c-1.3,46.5-25,122.9-25,122.9s9.8,33.8,59.9,57.2
					c50.1,23.4,48.9,20,48.9,20s58.8-63.4,61.9-113.5s2.5-149.2,2.5-149.2L625.2,261L552.3,263.7z"/>
				<path id="XMLID_2984_" class="st3" d="M601,548.4c-2.8,0-12.3-2.9-49.4-20.3c-50.2-23.5-60.4-56.9-60.8-58.3l-0.1-0.5l0.2-0.5
					c0.2-0.8,23.6-76.8,25-122.5c1.3-46.6,35-83.4,35.3-83.8l0.5-0.5l74.1-2.7l41.8,23.6l0,1c0,1,0.6,99.8-2.5,149.4
					c-3,47.7-54.7,106.1-61.7,113.8l0,0.1l-0.9,0.8C602.1,548.1,601.8,548.4,601,548.4z M494.2,469.3c1.4,4.1,13.3,34.4,58.8,55.6
					c36.6,17.1,45.3,19.7,47.3,20c5.1-5.7,58.2-65.2,61.1-112c2.9-46.7,2.6-137.6,2.5-148.1l-39.2-22.1l-71.6,2.6
					c-4,4.6-32.7,38.7-33.9,81C517.9,390.6,496.3,462.4,494.2,469.3z"/>
			</g>
			<g id="XMLID_2978_">
				<path id="XMLID_2982_" class="st1" d="M573.8,266.4c0,0-11.6,38.4,10.7,48.7c22.3,10.3,49.2-24.1,53-37.1c0.9-3,1.7-5.5,2.5-7.6
					c1.8-4.9-0.3-10.3-4.8-13c-6-3.6-12.8-9.8-13.5-20.1c-1.3-18.8-21.5-17.4-23.2-17C596.6,220.8,573.8,266.4,573.8,266.4z"/>
				<path id="XMLID_2979_" class="st3" d="M593.2,318.7c-3.3,0-6.4-0.7-9.4-2.1c-23.4-10.8-12.2-49.2-11.7-50.8l0.1-0.3
					c23.1-46.3,24.7-46.7,25.7-46.9c1.4-0.4,10.8-1.1,17.9,4c4.5,3.3,7,8.2,7.5,14.5c0.7,9.7,7.3,15.6,12.7,18.8
					c5.3,3.1,7.7,9.5,5.6,15.1c-0.8,2.2-1.6,4.7-2.4,7.4c-2.9,10.1-17.9,30.1-33.7,37.3C601.2,317.7,597.1,318.7,593.2,318.7z
					 M575.4,267c-0.7,2.5-10.3,37.3,9.8,46.5c5.6,2.6,11.9,2.3,18.8-0.9c16.1-7.4,29.5-27.1,31.8-35.1c0.8-2.8,1.7-5.4,2.5-7.7
					c1.5-4-0.2-8.6-4.1-10.9c-6.1-3.6-13.6-10.3-14.4-21.5c-0.4-5.3-2.4-9.3-6-11.9c-5.3-3.9-12.8-3.8-14.7-3.6
					C596.6,225.3,583.4,251,575.4,267z"/>
			</g>
			<g id="XMLID_2967_">
				<path id="XMLID_2977_" class="st1" d="M564.8,271.8c0,0-21.7,40.9-27.2,87.8c-5.5,46.9-31.2,133.8-31.2,133.8l-37.2-13
					c0,0,30.1-89.9,33.4-127.5c3.3-37.5,31.7-86.9,43.6-95.4l28,3.5L564.8,271.8z"/>
				<path id="XMLID_2968_" class="st3" d="M507.5,495.6L467,481.4l0.5-1.6c0.3-0.9,30.1-90.2,33.3-127.1
					c3.2-37.2,31.7-87.6,44.4-96.7l0.5-0.4l31.9,4l-11.5,13.1c-1.5,3-21.7,42.5-26.9,87c-5.5,46.5-31,133.2-31.2,134.1L507.5,495.6z
					 M471.4,479.2l33.9,11.9c3.6-12.5,25.6-89.2,30.6-131.8c5.5-46.7,27.2-88,27.4-88.4l0.2-0.3l7.3-8.3l-24.1-3
					c-11.1,8.8-39.1,56-42.4,93.7C501.3,387.5,475.4,466.9,471.4,479.2z"/>
			</g>
			<g id="XMLID_2962_">
				<path id="XMLID_2966_" class="st3" d="M549.6,308.2c0,0-2.8-30.2,2.4-56.2c5.2-25.9,24.5,0,24.5,0l-11.7,19.7
					C564.8,271.8,552.9,297.7,549.6,308.2z"/>
				<path id="XMLID_2963_" class="st3" d="M548.6,316.8l-0.8-8.4c0-0.3-2.8-30.8,2.5-56.7c1.5-7.5,4.4-11.8,8.6-12.7
					c8.4-1.9,17.9,10.6,18.9,12l0.7,0.9l-12.3,20.7c0,0.1-11.7,25.8-15,36.1L548.6,316.8z M560.7,242.3c-0.4,0-0.7,0-1,0.1
					c-3.4,0.8-5.1,5.9-6,10c-3.5,17.3-3.4,36.7-2.9,47.5c4.7-11.8,12-28,12.4-28.8l11.2-18.9C571.6,248.7,565.4,242.3,560.7,242.3z"
					/>
			</g>
			<g id="XMLID_2957_">
				<path id="XMLID_2961_" class="st1" d="M584.8,358.6c-1.5-0.4-3,0.4-3.4,1.9c-2.7,8.3-9.6,33.9,3.5,39.8
					c12.4,5.7,24,4.6,28.3,3.9c1.1-0.2,1.9-0.9,2.3-2l10.3-32.7c0.5-1.7-0.5-3.4-2.3-3.7C615.4,364.6,594.9,361.3,584.8,358.6z"/>
				<path id="XMLID_2958_" class="st3" d="M600,399c-5.7,0-13.5-0.9-21.6-4.6c-14-6.4-7.8-31.5-4.5-41.9c0.7-2.3,3.2-3.7,5.5-3l0,0
					c10,2.7,30.2,5.9,38.4,7.2c1.3,0.2,2.5,1,3.2,2.1c0.7,1.1,0.9,2.5,0.5,3.8l-10.3,32.7c-0.5,1.7-1.9,2.9-3.6,3.2
					C606,398.7,603.3,399,600,399z M578.3,352.8c-0.5,0-0.9,0.3-1,0.8c-2.4,7.5-9.3,32.3,2.6,37.7c12,5.4,23,4.5,27.3,3.8
					c0.4-0.1,0.8-0.4,0.9-0.8l10.3-32.7c0.1-0.4,0-0.8-0.1-0.9c-0.1-0.2-0.3-0.4-0.8-0.5c-8.3-1.3-28.7-4.5-38.8-7.3
					C578.4,352.8,578.3,352.8,578.3,352.8z"/>
			</g>
			<g id="XMLID_2932_">
				<path id="XMLID_2956_" class="st1" d="M635.2,257.4c0,0-14.1,39.1-29.5,65.2c-15.4,26.1-11.4,135.2-33.8,180.9
					c-22.4,45.7-19.8,51.9-19.8,51.9s-1,90.4,128.3,48.9c6.8-2.2,10.7-9.3,8.9-16.2c-6.5-25.3-21.9-91.6-8.5-140.1
					c17.4-63,4-148.2,4-148.2S675.3,262.6,635.2,257.4z"/>
				<path id="XMLID_2951_" class="st3" d="M620.7,617c-18.8,0-34.3-4.4-46.1-13.1c-23.5-17.3-24.2-45.5-24.2-48.3
					c-0.4-2.4,0.3-12.7,19.9-52.8c12-24.5,16.4-67.9,20.3-106.2c3.4-33.5,6.3-62.5,13.6-74.8c15.1-25.7,29.2-64.5,29.3-64.9l0.5-1.3
					l1.4,0.2c40.8,5.3,51,43.3,51.1,43.7c0.2,1,13.3,86.4-4,149.1c-9.2,33.4-6.3,81.5,8.5,139.2c2,7.8-2.4,15.8-10.1,18.2
					C658.1,613.3,637.9,617,620.7,617z M636.3,259.3c-2.6,7.1-15.4,40.9-29.1,64.2c-6.9,11.7-9.9,41.6-13.1,73.4
					c-3.9,38.6-8.4,82.4-20.7,107.4c-20.9,42.7-19.7,50.3-19.7,50.6l0.1,0.3l-0.1,0.2c0,0.3,0,28.9,22.8,45.7
					c21.8,16,56.5,16.6,103.2,1.6c5.9-1.9,9.3-8.1,7.8-14.1c-15-58.3-17.9-107.1-8.5-141c17.1-61.9,4.1-146.6,4-147.4
					C683.1,299.9,673.6,265,636.3,259.3z"/>
			</g>
			<g id="XMLID_2920_">
				<path id="XMLID_2930_" class="st1" d="M614.5,317c0,0,24.8-25.9,30.8-40.6c6-14.7,2.3-36.5-16.1-41.6l-8.3,10.8
					c0,0,9.4,12.7,0.5,34.2c-8.9,21.5-22.4,19.4-22,62.7C599.3,342.4,605.6,327.7,614.5,317z"/>
				<path id="XMLID_2924_" class="st3" d="M597.7,350.8l-0.1-8.3c-0.3-30.1,6.2-38.9,13.1-48.2c3.1-4.2,6.3-8.5,9.1-15.1
					c8.5-20.3-0.2-32.4-0.3-32.5l-0.8-1l9.8-12.7l1.1,0.3c7.4,2,13.1,6.8,16.6,13.8c4.3,8.7,4.5,20.5,0.6,30.1
					c-6,14.6-29.6,39.4-31.1,41c-8.6,10.4-14.8,24.9-14.8,25L597.7,350.8z M623,245.7c2.1,3.7,7.8,16,0,34.7
					c-2.9,7-6.2,11.5-9.5,15.9c-6.2,8.3-11.5,15.6-12.3,38.3c2.7-5.3,6.9-12.6,12-18.7l0.1-0.1c0.2-0.3,24.6-25.8,30.5-40
					c3.6-8.7,3.4-19.4-0.5-27.2c-2.8-5.7-7.4-9.7-13.3-11.7L623,245.7z"/>
			</g>
			<g id="XMLID_2910_">
				<path id="XMLID_2918_" class="st3" d="M615.7,290.2c-8.1,12-16.7,17.5-16.4,52.3c0,0,6.2-14.7,15.1-25.5c0,0,17.2-18,26.4-32.5
					C631.4,287.1,621.9,289,615.7,290.2z"/>
				<path id="XMLID_2912_" class="st3" d="M597.6,350.8l-0.1-8.3c-0.3-30.1,6.2-38.9,13.1-48.2c1.2-1.6,2.4-3.3,3.6-5l0.4-0.6
					l0.7-0.1c6.3-1.1,15.7-3,25-5.6l4.3-1.2l-2.4,3.8c-9.2,14.5-26.5,32.5-26.6,32.7c-8.5,10.3-14.7,24.8-14.8,25L597.6,350.8z
					 M616.7,291.7c-1.1,1.6-2.2,3.1-3.3,4.6c-6.2,8.3-11.5,15.6-12.3,38.3c2.7-5.3,6.9-12.6,12-18.7c0.2-0.2,14.4-15.1,23.8-28.5
					C629.3,289.3,622,290.8,616.7,291.7z"/>
			</g>
			<g id="XMLID_2888_">
				<g id="XMLID_2899_">
					<path id="XMLID_2908_" class="st1" d="M484.1,384.4l20.9,11c2.4,1.3,4.4,4.1,5.4,7.5l17.8,66c0.9,3.3-0.9,5.9-3.2,4.8
						l-20.7-10.3c-2.5-1.2-4.5-4.1-5.5-7.6l-24-62.2C474,390.3,481.7,383.2,484.1,384.4z"/>
					<path id="XMLID_2901_" class="st3" d="M526.1,475.7c-0.6,0-1.2-0.1-1.8-0.5l-20.7-10.3c-2.9-1.5-5.3-4.7-6.4-8.7l-23.9-62
						c-0.9-3.4,2.8-7.5,5.2-9.4c1.8-1.5,4.5-3,6.4-2l20.9,11c2.8,1.5,5.2,4.7,6.2,8.6l17.8,66c0.7,2.6,0.1,5.1-1.5,6.4
						C527.7,475.5,526.9,475.7,526.1,475.7z M483.4,386c-0.8,0-3.3,1.5-5.3,4c-1.3,1.6-1.6,2.8-1.6,3.1l23.9,62
						c0.9,3.2,2.6,5.7,4.6,6.7l20.7,10.3c0.3,0.1,0.4,0.1,0.4,0c0.4-0.3,0.7-1.4,0.3-2.8l-17.8-66c-0.8-3-2.5-5.4-4.5-6.5L483.4,386
						z"/>
				</g>
				<g id="XMLID_2889_">
					<path id="XMLID_2897_" class="st3" d="M478.3,390.8l20.9,11c2.4,1.3,4.4,4.1,5.4,7.5l17.8,66c0.9,3.3-0.9,5.9-3.2,4.8
						l-20.7-10.3c-2.5-1.2-4.5-4.1-5.5-7.6l-18-66.6C474.2,392.2,476,389.6,478.3,390.8z"/>
					<path id="XMLID_2891_" class="st3" d="M520.3,482.1c-0.6,0-1.2-0.1-1.8-0.5l-20.7-10.3c-2.9-1.5-5.3-4.7-6.4-8.7l-18-66.6
						c-0.7-2.6-0.1-5.1,1.5-6.4c1.2-1,2.8-1.1,4.2-0.3l20.9,11c2.8,1.5,5.2,4.7,6.2,8.6l17.8,66c0.7,2.6,0.1,5.1-1.5,6.4
						C522,481.8,521.2,482.1,520.3,482.1z M477.2,392.2c-0.1,0-0.1,0-0.1,0.1c-0.4,0.3-0.7,1.4-0.3,2.8l18,66.6
						c0.8,3,2.6,5.5,4.6,6.5l20.7,10.3c0.3,0.1,0.4,0.1,0.4,0c0.4-0.3,0.7-1.4,0.3-2.8l-17.8-66c-0.8-3-2.5-5.4-4.5-6.5l-20.9-11
						C477.4,392.2,477.3,392.2,477.2,392.2z"/>
				</g>
			</g>
			<g id="XMLID_2865_">
				<path id="XMLID_2887_" class="st1" d="M561.4,452.5c0,0-28.6,3-38.8-8c-10.3-11-11.4-12.4-14.9-14.4s-7.2,7,1.9,19.1
					c4.4,5.8,0.9,4.2,0.9,4.2s-17.3-0.2-19.8-10.5c-2.5-10.3-6.7-4.1-6.2,5.5c0.5,9.5-2.1,41.1,39.7,35.9c0,0,15.3-4.7,40.6,1.7
					L561.4,452.5z"/>
				<path id="XMLID_2866_" class="st3" d="M566.7,488.1l-2.4-0.6c-24.4-6.1-39.5-1.7-39.7-1.7c-14.3,1.8-24.9-0.4-31.9-6.4
					c-9.6-8.2-9.9-21.5-10-28.7c0-0.9,0-1.7-0.1-2.4c-0.3-5.7-0.1-11.7,3.4-12.2c3.4-0.5,5.8,4.5,6.2,6.2c1.8,7.4,13,8.8,16.9,9.1
					c-0.3-0.4-0.6-0.8-1-1.4c-6.8-8.9-7.4-17.4-4.4-20.7c1.3-1.4,3.1-1.8,4.7-0.9c3.5,2,4.8,3.4,13.1,12.3l2.2,2.4
					c9.6,10.3,37.1,7.5,37.4,7.5l1.7-0.2L566.7,488.1z M539.3,480.8c6.2,0,14.1,0.7,23.5,2.8l-3-29.2c-6.5,0.5-29.2,1.3-38.6-8.7
					l-2.2-2.4c-8.2-8.8-9.2-9.9-12.3-11.7c-0.1-0.1-0.2-0.1-0.4,0.1c-1.5,1.7-1.6,8.2,4.6,16.4c2.2,2.9,3.3,4.9,2.1,6.4
					c-0.6,0.8-1.7,1-2.9,0.6c-2.6-0.1-18.6-1-21.2-11.8c-0.6-2.3-1.1-3.3-1.4-3.8c-0.7,1-1.6,4-1.4,8.8c0,0.7,0.1,1.5,0.1,2.5
					c0.2,7.1,0.4,18.9,8.8,26.2c6.2,5.3,15.9,7.2,28.9,5.6C524.2,482.4,529.6,480.8,539.3,480.8z"/>
			</g>
			<g id="XMLID_2542_">
				<path id="XMLID_2860_" class="st3" d="M571.9,458.8l0.2,21.6c0.1,6.5,5.4,11.7,11.9,11.5c20.7-0.5,64.5-2.4,97.9-9.9
					c4.8-1.1,8.6-4.7,9.7-9.5c6-24.9,22.4-105.6,1-169.9c-3.8-11.4-14.7-19.5-26.7-18.8c-11.2,0.7-22.8,9.3-24.3,40.8
					c-2.4,48.9,0.4,92.1,1.7,108.9c0.4,4.5-2.6,8.4-7,9.4c-10.1,2.3-29.6,5.9-54.6,6.1C576.2,449.1,571.8,453.4,571.9,458.8z"/>
				<path id="XMLID_2543_" class="st3" d="M583.6,493.6c-3.5,0-6.7-1.3-9.2-3.7c-2.6-2.5-4-5.9-4.1-9.5l-0.2-21.6
					c0-6.3,5-11.4,11.4-11.5c25.2-0.2,44.8-3.9,54.2-6.1c3.6-0.8,6-4,5.7-7.6c-1.3-16.4-4.1-59.9-1.7-109.1
					c1.6-33.8,15-41.7,25.9-42.4c12.4-0.8,24.4,7.6,28.5,19.9c21.7,65,4.8,147.2-0.9,170.8c-1.3,5.4-5.5,9.6-11,10.8
					c-33.1,7.4-75.7,9.4-98.2,9.9C583.8,493.6,583.7,493.6,583.6,493.6z M573.6,458.8l0.2,21.6c0,2.7,1.1,5.2,3,7
					c1.9,1.9,4.5,2.9,7.1,2.8c22.4-0.5,64.8-2.5,97.6-9.8c4.2-0.9,7.4-4.1,8.4-8.3c5.6-23.4,22.4-104.8,1-168.9
					c-3.6-10.9-14.2-18.3-25-17.6c-13.9,0.9-21.5,14.1-22.7,39.2c-2.4,49,0.4,92.3,1.7,108.6c0.4,5.3-3.1,10.1-8.3,11.3
					c-9.6,2.2-29.5,5.9-55,6.1C577.1,450.8,573.6,454.4,573.6,458.8L573.6,458.8z"/>
			</g>
			<g id="XMLID_2537_">
				<path id="XMLID_2541_" class="st1" d="M577.8,495.3l-18.1,0.3c-1,0-1.9-0.8-1.9-1.9l-0.9-48.4c0-1,0.8-1.9,1.9-1.9l18.1-0.3
					c1,0,1.9,0.8,1.9,1.9l0.9,48.4C579.7,494.4,578.9,495.3,577.8,495.3z"/>
				<path id="XMLID_2538_" class="st3" d="M564.5,497.3c-2.2,0-4.3-0.8-5.9-2.4c-1.6-1.6-2.6-3.7-2.6-6l-0.7-38.7
					c0-2.3,0.8-4.4,2.4-6.1c1.6-1.6,3.7-2.6,6-2.6l8.3-0.2c2.4,0,4.4,0.8,6.1,2.4c1.6,1.6,2.6,3.7,2.6,6l0.7,38.7
					c0,2.3-0.8,4.4-2.4,6.1c-1.6,1.6-3.7,2.6-6,2.6l-8.3,0.2C564.6,497.3,564.5,497.3,564.5,497.3z M572.1,444.9
					C572,444.9,572,444.9,572.1,444.9l-8.4,0.2c-1.3,0-2.6,0.6-3.5,1.5c-0.9,1-1.4,2.2-1.4,3.6l0.7,38.7c0,1.3,0.6,2.6,1.5,3.5
					c1,0.9,2.4,1.4,3.6,1.4l8.3-0.2c1.3,0,2.6-0.6,3.5-1.5c0.9-1,1.4-2.2,1.4-3.6l-0.7-38.7c0-1.3-0.6-2.6-1.5-3.5
					C574.6,445.4,573.4,444.9,572.1,444.9z"/>
			</g>
			<g id="XMLID_2451_">
				<path id="XMLID_2536_" class="st1" d="M542.7,196.6c0,0-8.2,35.6,6.6,68.7c1,2.1,2.8,3.7,5.1,4.3c7.9,2.2,27.1,5.5,43.3-7.4
					c20.9-16.6,31.5-42.2,31.5-42.2s-8.7-31.5-10.1-34.2c-1.3-2.7-44.3-7.4-47.3-7.4C568.9,178.5,542.7,196.6,542.7,196.6z"/>
				<path id="XMLID_2452_" class="st3" d="M569.6,273.5c-6.6,0-12.3-1.2-15.6-2.1c-2.8-0.8-5.1-2.7-6.2-5.3
					c-14.8-33.3-7-68.3-6.7-69.8l0.2-0.7l0.5-0.4c9.9-6.9,27-18.4,30.1-18.4c0.4,0,46.7,4,48.8,8.3c1.4,2.8,9.3,31.3,10.2,34.5
					l0.2,0.6l-0.2,0.5c-0.4,1.1-11.1,26.2-32,42.9C589.1,271.4,578.4,273.5,569.6,273.5z M544.3,197.7c-1,4.9-6.7,37.2,6.6,67
					c0.7,1.7,2.2,2.9,4,3.4c7.4,2,26.2,5.4,41.8-7.1c18.6-14.8,29.1-37.3,30.8-41c-3.2-11.7-8.5-30.1-9.7-33
					c-4.1-2.2-41.3-6.7-45.9-6.7C569.9,180.6,556.3,189.3,544.3,197.7z"/>
			</g>
			<g id="XMLID_2446_">
				<path id="XMLID_2450_" class="st3" d="M589,193.7c4.5-0.3,8.2,3.4,8,7.9l-1.3,25h6.7c0,0,2.7-22.9,14.3-22.3
					c11.6,0.6-3.1,40.7-3.1,40.7s11.6,4,17.7-5.8c6-9.8,24.4-43.8,6.3-77.3c-12.8-23.7-67.3-48.6-98.2-8.2
					c-18.8,24.6-8.9,42.1,1.1,50.9c3.1,2.7,8.6,3,12,0.8c7.9-5.2,11.6-12.3,23.2-11.7C581.4,193.9,585.8,193.9,589,193.7z"/>
				<path id="XMLID_2447_" class="st3" d="M618.9,247.5c-2.3,0-4.4-0.4-5.9-0.9l-1.7-0.6l0.6-1.7c4.3-11.7,9.8-32.2,6.4-37.4
					c-0.4-0.6-1-1-1.7-1c-9.6-0.5-12.5,20.6-12.5,20.8l-0.2,1.5h-10.1l1.4-26.9c0.1-1.7-0.5-3.2-1.7-4.4c-1.2-1.2-2.8-1.8-4.5-1.7
					l0,0c-3.8,0.2-8.4,0.2-13.6-0.1c-7.7-0.4-11.4,2.7-16.1,6.7c-1.8,1.6-3.8,3.2-6.1,4.7c-4.1,2.7-10.4,2.3-14.1-1
					c-7.6-6.6-22.8-25.1-1.3-53.3c15.3-20.1,34.9-23,48.6-21.9c24.5,1.9,45.3,17.1,52.4,30.3c17.8,33,1.5,66.3-6.3,79
					C629.1,245.8,623.6,247.5,618.9,247.5z M615.8,243.7c3.2,0.6,9.9,1,13.9-5.5c7.5-12.3,23.2-44.2,6.2-75.6
					c-6.8-12.6-27.2-26.8-49.7-28.5c-12.9-1-31.2,1.7-45.6,20.5c-19.7,25.8-6,42.6,0.9,48.6c2.5,2.2,7.1,2.5,9.9,0.7
					c2.1-1.4,3.9-2.9,5.7-4.4c4.8-4.1,9.4-8,18.5-7.5c5.1,0.3,9.5,0.3,13.2,0.1l0,0c2.7-0.1,5.2,0.8,7.1,2.6c1.9,1.8,2.9,4.4,2.7,7
					l-1.2,23.2h3.4c0.9-5.3,4.5-22.4,15.4-22.4c0.2,0,0.3,0,0.5,0c1.9,0.1,3.4,1,4.5,2.5C626.2,212.5,618.4,236.4,615.8,243.7z"/>
			</g>
			<g id="XMLID_2440_">
				<path id="XMLID_2445_" class="st1" d="M607.7,209.9c0,0,10.3-12.4,13.4,1.5c1.7,7.9-5.8,15-10.3,18.4c-1.9,1.4-4.6,1.1-6-0.8
					c-1.4-2-2.5-5-1.2-8.8C606.2,212.8,607.7,209.9,607.7,209.9z"/>
				<path id="XMLID_2441_" class="st3" d="M608.1,232.4c-0.3,0-0.6,0-0.9-0.1c-1.6-0.2-2.9-1.1-3.8-2.4c-2.2-3.1-2.6-6.7-1.4-10.3
					c2.6-7.5,4.1-10.4,4.2-10.6l0.2-0.3c0.6-0.7,5.8-6.8,10.8-5.6c2.7,0.7,4.6,3.3,5.6,7.8c1.9,8.8-6,16.4-10.9,20.1
					C610.8,232,609.5,232.4,608.1,232.4z M609.2,210.9c-0.3,0.7-1.8,3.7-3.9,9.9c-0.9,2.6-0.6,5,1,7.2c0.3,0.5,0.9,0.8,1.5,0.9
					c0.7,0.1,1.4-0.1,2-0.5c4.3-3.3,11.2-9.7,9.7-16.6c-0.5-2.1-1.4-4.8-3.1-5.2C614.1,206.1,610.6,209.2,609.2,210.9z"/>
			</g>
			<g id="XMLID_2438_">
				<path id="XMLID_2439_" class="st3" d="M646.7,257.3c-13.5-4.9-20.8-0.4-21.1-0.2l-1.9-2.9c0.4-0.2,9-5.7,24.2-0.2L646.7,257.3z"
					/>
			</g>
			<g id="XMLID_2436_">
				<path id="XMLID_2437_" class="st3" d="M646.1,270.7c-8.7-7.7-20.4-2.9-20.5-2.8l-1.4-3.2c0.6-0.2,13.8-5.8,24.2,3.4L646.1,270.7
					z"/>
			</g>
			<g id="XMLID_2431_">
				<path id="XMLID_2435_" class="st3" d="M676.1,510.7c-12.4,1.8-34,4.8-60.8,7.6c0,0-2.2,65.7,45.1,59c10.6-1.5,18.5-3.8,24.5-6.4
					C681.5,554.6,677.6,533.1,676.1,510.7z"/>
				<path id="XMLID_2432_" class="st3" d="M653.9,579.5c-9,0-16.7-2.8-22.9-8.4c-18.4-16.6-17.5-51.4-17.4-52.9l0.1-1.5l1.5-0.2
					c26.3-2.7,47.5-5.6,60.7-7.6l1.9-0.3l0.1,1.9c1.2,18.5,4.2,38.7,8.9,59.9l0.3,1.4l-1.3,0.6c-6.7,3-15.1,5.2-25,6.6
					C658.4,579.3,656.1,579.5,653.9,579.5z M617.1,519.8c0,6.8,1.1,35.1,16.3,48.7c6.9,6.2,16,8.6,26.9,7c8.9-1.3,16.6-3.2,22.8-5.7
					c-4.4-20.2-7.3-39.4-8.5-57.2C661.5,514.5,641.6,517.2,617.1,519.8z"/>
			</g>
			<g id="XMLID_2429_">
				<path id="XMLID_2430_" class="st1" d="M341.5,603.6l-1.7-3c0.5-0.3,46.6-27.1,67.4-54.4l0.5-0.7l0.8,0c0.3,0,37.6-0.4,71.1,22.5
					c6.1,4.2,12.9,8,20.1,11.3l-1.4,3.1c-7.4-3.4-14.3-7.3-20.6-11.6c-29.9-20.3-62.7-21.8-68.3-21.9
					C387.9,576.7,343.4,602.6,341.5,603.6z"/>
			</g>
			<g id="XMLID_2427_">
				<path id="XMLID_2428_" class="st1" d="M409.1,601.3c-2.8-6.2-9.5-9.8-9.5-9.8l1.6-3c0.3,0.2,7.7,4.2,11,11.4L409.1,601.3z"/>
			</g>
			<g id="XMLID_2425_">
				
					<rect id="XMLID_2426_" x="479.9" y="403.3" transform="matrix(0.9654 -0.2608 0.2608 0.9654 -92.7818 140.1311)" class="st1" width="3.5" height="32.7"/>
			</g>
			<g id="XMLID_2423_">
				<path id="XMLID_2424_" class="st1" d="M504.2,300.6l-2.5-2.4c0.4-0.4,8.9-9,20.6-11.3l0.7,3.4
					C512.3,292.4,504.3,300.6,504.2,300.6z"/>
			</g>
			<g id="XMLID_2419_">
				<path id="XMLID_2421_" class="st1" d="M697.4,345.5c-21.2-31.3-53.8-20.8-54.1-20.7l-1.1-3.3c0.4-0.1,35.4-11.3,58.1,22.1
					L697.4,345.5z"/>
			</g>
			<g id="XMLID_2416_">
				<path id="XMLID_2417_" class="st1" d="M620.1,532.9l-0.2-3.4c0.3,0,28.7-1.4,50.3-8l1,3.3C649.2,531.5,620.4,532.9,620.1,532.9z
					"/>
			</g>
			<g id="XMLID_2414_">
				<path id="XMLID_2415_" class="st3" d="M595.3,369.3c-9.2-1.2-22.1-5.9-22.6-6.1l1.2-3.2c0.1,0,13,4.8,21.9,5.9L595.3,369.3z"/>
			</g>
			<g id="XMLID_2412_">
				<path id="XMLID_2413_" class="st1" d="M564.6,193.7c-25.5-1.8-25.9-22.3-25.9-22.5l3.5,0c0,0.7,0.4,17.5,22.7,19.1L564.6,193.7z
					"/>
			</g>
			<g id="XMLID_2410_">
				<path id="XMLID_2411_" class="st3" d="M203.6,619l-3-1.8c0.3-0.5,7.1-11.7,16.8-13.1l0.5,3.4C209.9,608.7,203.7,618.9,203.6,619
					z"/>
			</g>
			<g id="XMLID_2408_">
				<path id="XMLID_2409_" class="st3" d="M213.6,622.5l-2.9-1.9c0.3-0.5,8.3-12.4,19.4-13.6l0.4,3.4
					C221.1,611.5,213.7,622.4,213.6,622.5z"/>
			</g>
			<g id="XMLID_2406_">
				<path id="XMLID_2407_" class="st3" d="M314.8,797c-6.8-9-17.9-10.7-18-10.7l0.5-3.4c0.5,0.1,12.6,2,20.3,12L314.8,797z"/>
			</g>
			<g id="XMLID_2404_">
				<path id="XMLID_2405_" class="st3" d="M323,793.7c-7.5-14.3-18.3-15.5-18.7-15.5l0.3-3.4c0.5,0,13.1,1.3,21.5,17.4L323,793.7z"
					/>
			</g>
			<g id="XMLID_2402_">
				<path id="XMLID_2403_" class="st1" d="M549.3,564.2c-19-10.6-7.6-38.9-7.4-39.2l3.2,1.3c-0.1,0.3-10.4,25.8,5.9,34.8
					L549.3,564.2z"/>
			</g>
		</g>
	</g>
</g>
</svg>
